# Blender 4.3.2
# www.blender.org
mtllib beer_bottle.mtl
o beer_bottle
v -0.020724 0.007141 -0.032543
v -0.001676 0.007141 -0.038546
v 0.017821 0.007141 -0.034220
v 0.032543 0.007141 -0.020724
v 0.038546 0.007141 -0.001676
v 0.034220 0.007141 0.017821
v 0.020724 0.007141 0.032543
v 0.001676 0.007141 0.038546
v -0.017821 0.007141 0.034220
v -0.032543 0.007141 0.020724
v -0.038546 0.007141 0.001676
v -0.034220 0.007141 -0.017821
v -0.001291 0.022607 -0.029675
v -0.015955 0.022607 -0.025054
v 0.013720 0.022607 -0.026344
v 0.025054 0.022607 -0.015955
v 0.029675 0.022607 -0.001291
v 0.026344 0.022607 0.013720
v 0.015955 0.022607 0.025054
v 0.001291 0.022607 0.029675
v -0.013720 0.022607 0.026344
v -0.025054 0.022607 0.015955
v -0.029675 0.022607 0.001291
v -0.026344 0.022607 -0.013720
v -0.000957 0.035902 -0.022017
v -0.011838 0.035902 -0.018588
v 0.010179 0.035902 -0.019546
v 0.018588 0.035902 -0.011838
v 0.022017 0.035902 -0.000957
v 0.019546 0.035902 0.010179
v 0.011838 0.035902 0.018588
v 0.000957 0.035902 0.022017
v -0.010179 0.035902 0.019546
v -0.018588 0.035902 0.011838
v -0.022017 0.035902 0.000957
v -0.019546 0.035902 -0.010179
v -0.000813 0.083114 -0.018689
v -0.010048 0.083114 -0.015779
v 0.008641 0.083114 -0.016592
v 0.015779 0.083114 -0.010048
v 0.018689 0.083114 -0.000813
v 0.016592 0.083114 0.008641
v 0.010048 0.083114 0.015779
v 0.000813 0.083114 0.018689
v -0.008641 0.083114 0.016591
v -0.015779 0.083114 0.010048
v -0.018689 0.083114 0.000813
v -0.016591 0.083114 -0.008641
v -0.000595 0.124356 -0.013685
v -0.007358 0.124356 -0.011554
v 0.006327 0.124356 -0.012149
v 0.011554 0.124356 -0.007358
v 0.013685 0.124356 -0.000595
v 0.012149 0.124356 0.006327
v 0.007358 0.124356 0.011554
v 0.000595 0.124356 0.013685
v -0.006327 0.124356 0.012149
v -0.011554 0.124356 0.007358
v -0.013685 0.124356 0.000595
v -0.012149 0.124356 -0.006327
v -0.000633 0.143805 -0.014546
v -0.007821 0.143805 -0.012281
v 0.006725 0.143805 -0.012913
v 0.012281 0.143805 -0.007821
v 0.014546 0.143805 -0.000633
v 0.012913 0.143805 0.006725
v 0.007821 0.143805 0.012281
v 0.000633 0.143805 0.014546
v -0.006725 0.143805 0.012913
v -0.012281 0.143805 0.007821
v -0.014546 0.143805 0.000633
v -0.012913 0.143805 -0.006725
v -0.000730 0.125735 -0.016796
v 0.007766 0.125735 -0.014911
v -0.007766 0.125735 0.014911
v -0.014181 0.125735 0.009031
v 0.014911 0.125735 0.007766
v 0.009031 0.125735 0.014181
v 0.014181 0.125735 -0.009031
v -0.016796 0.125735 0.000730
v 0.000730 0.125735 0.016796
v 0.016796 0.125735 -0.000730
v -0.014911 0.125735 -0.007766
v -0.009031 0.125735 -0.014181
v -0.000683 0.141388 -0.015706
v -0.008444 0.141388 -0.013260
v 0.007261 0.141388 -0.013943
v 0.013260 0.141388 -0.008444
v 0.015706 0.141388 -0.000683
v 0.013943 0.141388 0.007261
v 0.008444 0.141388 0.013260
v 0.000683 0.141388 0.015706
v -0.007261 0.141388 0.013943
v -0.013260 0.141388 0.008444
v -0.015706 0.141388 0.000683
v -0.013943 0.141388 -0.007261
v -0.000683 0.145995 -0.015706
v -0.008444 0.145995 -0.013260
v 0.007261 0.145995 -0.013943
v 0.013260 0.145995 -0.008444
v 0.015706 0.145995 -0.000683
v 0.013943 0.145995 0.007261
v 0.008444 0.145995 0.013260
v 0.000683 0.145995 0.015706
v -0.007261 0.145995 0.013943
v -0.013260 0.145995 0.008444
v -0.015706 0.145995 0.000683
v -0.013943 0.145995 -0.007261
v -0.020724 0.003672 -0.032543
v -0.001676 0.003672 -0.038546
v 0.017821 0.003672 -0.034220
v 0.032543 0.003672 -0.020724
v 0.038546 0.003672 -0.001676
v 0.034220 0.003672 0.017821
v 0.020724 0.003672 0.032543
v 0.001676 0.003672 0.038546
v -0.017821 0.003672 0.034220
v -0.032543 0.003672 0.020724
v -0.038546 0.003672 0.001676
v -0.034220 0.003672 -0.017821
v -0.001676 -0.099866 -0.038546
v 0.017821 -0.099866 -0.034220
v 0.032543 -0.099866 -0.020724
v 0.038546 -0.099866 -0.001676
v 0.034220 -0.099866 0.017821
v 0.020724 -0.099866 0.032543
v 0.001676 -0.099866 0.038546
v -0.017821 -0.099866 0.034220
v -0.032543 -0.099866 0.020724
v -0.038546 -0.099866 0.001676
v -0.034220 -0.099866 -0.017821
v -0.020724 -0.099866 -0.032543
v -0.021358 -0.099866 -0.033538
v -0.021358 0.003672 -0.033538
v -0.035265 0.003672 -0.018366
v -0.039724 0.003672 0.001728
v -0.033538 0.003672 0.021358
v -0.018366 0.003672 0.035265
v 0.001728 0.003672 0.039724
v 0.021358 0.003672 0.033538
v 0.035265 0.003672 0.018366
v 0.039724 0.003672 -0.001728
v 0.033538 0.003672 -0.021358
v 0.018366 0.003672 -0.035265
v -0.001728 0.003672 -0.039724
v -0.001728 -0.099866 -0.039724
v 0.018366 -0.099866 -0.035265
v 0.033538 -0.099866 -0.021358
v 0.039724 -0.099866 -0.001728
v 0.035265 -0.099866 0.018366
v 0.021358 -0.099866 0.033538
v 0.001728 -0.099866 0.039724
v -0.018366 -0.099866 0.035265
v -0.033538 -0.099866 0.021358
v -0.039724 -0.099866 0.001728
v -0.035265 -0.099866 -0.018366
v -0.019046 -0.145995 -0.029907
v -0.020724 -0.142976 -0.032543
v -0.001540 -0.145995 -0.035423
v -0.001676 -0.142976 -0.038546
v 0.016377 -0.145995 -0.031448
v 0.017821 -0.142976 -0.034220
v 0.029907 -0.145995 -0.019046
v 0.032543 -0.142976 -0.020724
v 0.035423 -0.145995 -0.001540
v 0.038546 -0.142976 -0.001676
v 0.031448 -0.145995 0.016377
v 0.034220 -0.142976 0.017821
v 0.019046 -0.145995 0.029907
v 0.020724 -0.142976 0.032543
v 0.001540 -0.145995 0.035423
v 0.001676 -0.142976 0.038546
v -0.016377 -0.145995 0.031448
v -0.017821 -0.142976 0.034220
v -0.029907 -0.145995 0.019046
v -0.032543 -0.142976 0.020724
v -0.035423 -0.145995 0.001540
v -0.038546 -0.142976 0.001676
v -0.031448 -0.145995 -0.016377
v -0.034220 -0.142976 -0.017821
vn -0.5204 0.2477 -0.8172
vn -0.0421 0.2477 -0.9679
vn 0.4475 0.2477 -0.8593
vn 0.8172 0.2477 -0.5204
vn 0.9679 0.2477 -0.0421
vn 0.8593 0.2477 0.4475
vn 0.5204 0.2477 0.8172
vn 0.0421 0.2477 0.9679
vn -0.4475 0.2477 0.8593
vn -0.8172 0.2477 0.5204
vn -0.9679 0.2477 0.0421
vn -0.8593 0.2477 -0.4475
vn -0.0377 0.4986 -0.8660
vn -0.4656 0.4986 -0.7311
vn 0.4004 0.4986 -0.7688
vn 0.7311 0.4986 -0.4656
vn 0.8660 0.4986 -0.0377
vn 0.7688 0.4986 0.4004
vn 0.4656 0.4986 0.7311
vn 0.0377 0.4986 0.8660
vn -0.4004 0.4986 0.7688
vn -0.7311 0.4986 0.4656
vn -0.8660 0.4986 0.0377
vn -0.7688 0.4986 -0.4004
vn -0.0414 0.3033 -0.9520
vn -0.5119 0.3033 -0.8038
vn 0.4401 0.3033 -0.8452
vn 0.8038 0.3033 -0.5119
vn 0.9520 0.3033 -0.0414
vn 0.8452 0.3033 0.4401
vn 0.5119 0.3033 0.8038
vn 0.0414 0.3033 0.9520
vn -0.4401 0.3033 0.8452
vn -0.8038 0.3033 0.5119
vn -0.9520 0.3033 0.0414
vn -0.8452 0.3033 -0.4401
vn -0.0433 0.0951 -0.9945
vn -0.5347 0.0951 -0.8397
vn 0.4598 0.0951 -0.8829
vn 0.8397 0.0951 -0.5347
vn 0.9945 0.0951 -0.0433
vn 0.8829 0.0951 0.4598
vn 0.5347 0.0951 0.8397
vn 0.0433 0.0951 0.9945
vn -0.4598 0.0951 0.8829
vn -0.8397 0.0951 0.5347
vn -0.9945 0.0951 0.0433
vn -0.8829 0.0951 -0.4598
vn -0.0365 -0.5414 -0.8400
vn -0.4516 -0.5414 -0.7092
vn 0.3884 -0.5414 -0.7457
vn 0.7092 -0.5414 -0.4516
vn 0.8400 -0.5414 -0.0365
vn 0.7457 -0.5414 0.3884
vn 0.4516 -0.5414 0.7092
vn 0.0365 -0.5414 0.8400
vn -0.3884 -0.5414 0.7457
vn -0.7092 -0.5414 0.4516
vn -0.8400 -0.5414 0.0365
vn -0.7457 -0.5414 -0.3884
vn -0.0052 -0.9928 -0.1196
vn -0.0643 -0.9928 -0.1010
vn 0.0553 -0.9928 -0.1062
vn 0.1010 -0.9928 -0.0643
vn 0.1196 -0.9928 -0.0052
vn 0.1062 -0.9928 0.0553
vn 0.0643 -0.9928 0.1010
vn 0.0052 -0.9928 0.1196
vn -0.0553 -0.9928 0.1062
vn -0.1010 -0.9928 0.0643
vn -0.1196 -0.9928 0.0052
vn -0.1062 -0.9928 -0.0553
vn -0.0387 -0.4546 -0.8898
vn 0.4114 -0.4546 -0.7900
vn -0.4114 -0.4546 0.7900
vn -0.7513 -0.4546 0.4784
vn 0.7900 -0.4546 0.4114
vn 0.4784 -0.4546 0.7513
vn 0.7513 -0.4546 -0.4784
vn -0.8898 -0.4546 0.0387
vn 0.0387 -0.4546 0.8898
vn 0.8898 -0.4546 -0.0387
vn -0.7900 -0.4546 -0.4114
vn -0.4784 -0.4546 -0.7513
vn -0.0158 -0.9317 -0.3628
vn -0.1951 -0.9317 -0.3063
vn 0.1677 -0.9317 -0.3221
vn 0.3063 -0.9317 -0.1951
vn 0.3628 -0.9317 -0.0158
vn 0.3221 -0.9317 0.1677
vn 0.1951 -0.9317 0.3063
vn 0.0158 -0.9317 0.3628
vn -0.1677 -0.9317 0.3221
vn -0.3063 -0.9317 0.1951
vn -0.3628 -0.9317 0.0158
vn -0.3221 -0.9317 -0.1677
vn -0.0329 0.6532 -0.7564
vn -0.4067 0.6532 -0.6387
vn 0.3497 0.6532 -0.6716
vn 0.6387 0.6532 -0.4067
vn 0.7564 0.6532 -0.0329
vn 0.6716 0.6532 0.3497
vn 0.4067 0.6532 0.6387
vn 0.0329 0.6532 0.7564
vn -0.3497 0.6532 0.6716
vn -0.6387 0.6532 0.4067
vn -0.7564 0.6532 0.0329
vn -0.6716 0.6532 -0.3497
vn -0.3426 0.7703 -0.5379
vn -0.0277 0.7703 -0.6371
vn 0.2946 0.7703 -0.5656
vn 0.5379 0.7703 -0.3426
vn 0.6371 0.7703 -0.0277
vn 0.5656 0.7703 0.2946
vn 0.3426 0.7703 0.5379
vn 0.0277 0.7703 0.6371
vn -0.2946 0.7703 0.5656
vn -0.5379 0.7703 0.3426
vn -0.6371 0.7703 0.0277
vn -0.5656 0.7703 -0.2946
vn -0.0277 -0.7703 -0.6371
vn 0.2946 -0.7703 -0.5656
vn 0.5379 -0.7703 -0.3426
vn 0.6371 -0.7703 -0.0277
vn 0.5656 -0.7703 0.2946
vn 0.3426 -0.7703 0.5379
vn 0.0277 -0.7703 0.6371
vn -0.2946 -0.7703 0.5656
vn -0.5379 -0.7703 0.3426
vn -0.6371 -0.7703 0.0277
vn -0.5656 -0.7703 -0.2946
vn -0.3426 -0.7703 -0.5379
vn -0.4067 -0.6532 -0.6387
vn -0.7565 0.6532 0.0329
vn 0.0329 0.6532 0.7565
vn 0.7565 0.6532 -0.0329
vn -0.0329 0.6532 -0.7565
vn -0.0329 -0.6532 -0.7565
vn 0.3497 -0.6532 -0.6716
vn 0.6387 -0.6532 -0.4067
vn 0.7565 -0.6532 -0.0329
vn 0.6716 -0.6532 0.3497
vn 0.4067 -0.6532 0.6387
vn 0.0329 -0.6532 0.7565
vn -0.3497 -0.6532 0.6716
vn -0.6387 -0.6532 0.4067
vn -0.7565 -0.6532 0.0329
vn -0.6716 -0.6532 -0.3497
vn -0.2287 -0.9049 -0.3591
vn -0.4992 -0.3692 -0.7839
vn -0.0185 -0.9049 -0.4253
vn -0.0404 -0.3692 -0.9285
vn 0.1966 -0.9049 -0.3776
vn 0.4293 -0.3692 -0.8243
vn 0.3591 -0.9049 -0.2287
vn 0.7839 -0.3692 -0.4992
vn 0.4253 -0.9049 -0.0185
vn 0.9285 -0.3692 -0.0404
vn 0.3776 -0.9049 0.1966
vn 0.8243 -0.3692 0.4293
vn 0.2287 -0.9049 0.3591
vn 0.4992 -0.3692 0.7839
vn 0.0185 -0.9049 0.4253
vn 0.0404 -0.3692 0.9285
vn -0.1966 -0.9049 0.3776
vn -0.4293 -0.3692 0.8243
vn -0.3591 -0.9049 0.2287
vn -0.7839 -0.3692 0.4992
vn -0.4253 -0.9049 0.0185
vn -0.9285 -0.3692 0.0404
vn -0.3776 -0.9049 -0.1966
vn -0.8243 -0.3692 -0.4293
vt 0.395201 0.529783
vt 0.395201 0.457822
vt 0.450384 0.459961
vt 0.450384 0.531923
vt 0.514103 0.459961
vt 0.514103 0.531923
vt 0.569286 0.457822
vt 0.569286 0.529783
vt 0.569286 0.529783
vt 0.569286 0.457822
vt 0.624468 0.459961
vt 0.624468 0.531923
vt 0.688187 0.459961
vt 0.688187 0.531923
vt 0.743370 0.457822
vt 0.743370 0.529783
vt 0.047033 0.529783
vt 0.047033 0.457822
vt 0.102216 0.459961
vt 0.102216 0.531923
vt 0.165935 0.459961
vt 0.165935 0.531923
vt 0.221117 0.457822
vt 0.221117 0.529783
vt 0.276300 0.459961
vt 0.276300 0.531923
vt 0.631800 0.408891
vt 0.680855 0.408891
vt 0.340019 0.459961
vt 0.340019 0.531923
vt 0.395202 0.457822
vt 0.395202 0.529783
vt 0.340019 0.933845
vt 0.340019 0.739682
vt 0.395202 0.737542
vt 0.395202 0.931705
vt 0.723338 0.407244
vt 0.674525 0.364982
vt 0.706045 0.363760
vt 0.589317 0.407244
vt 0.332687 0.408891
vt 0.375170 0.407244
vt 0.415233 0.407244
vt 0.457716 0.408891
vt 0.506771 0.408891
vt 0.549254 0.407244
vt 0.283632 0.408891
vt 0.241149 0.407244
vt 0.158603 0.408891
vt 0.201086 0.407244
vt 0.109548 0.408891
vt 0.067065 0.407244
vt 0.671775 0.214004
vt 0.698530 0.212967
vt 0.500441 0.364982
vt 0.531961 0.363760
vt 0.258442 0.363760
vt 0.289962 0.364982
vt 0.084358 0.363760
vt 0.115878 0.364982
vt 0.606610 0.363760
vt 0.638130 0.364982
vt 0.326357 0.364982
vt 0.432526 0.363760
vt 0.464046 0.364982
vt 0.152273 0.364982
vt 0.357877 0.363760
vt 0.183793 0.363760
vt 0.176278 0.212967
vt 0.149523 0.214004
vt 0.145387 0.081681
vt 0.164979 0.080922
vt 0.497691 0.214004
vt 0.524446 0.212967
vt 0.265957 0.212967
vt 0.292712 0.214004
vt 0.091873 0.212967
vt 0.118628 0.214004
vt 0.614125 0.212967
vt 0.640880 0.214004
vt 0.323607 0.214004
vt 0.440041 0.212967
vt 0.466796 0.214004
vt 0.350362 0.212967
vt 0.802167 0.543289
vt 0.802167 0.571055
vt 0.744177 0.569195
vt 0.744177 0.545149
vt 0.667639 0.081681
vt 0.687231 0.080922
vt 0.493555 0.081681
vt 0.513147 0.080922
vt 0.277256 0.080922
vt 0.296848 0.081681
vt 0.103172 0.080922
vt 0.122764 0.081681
vt 0.625425 0.080922
vt 0.645016 0.081681
vt 0.319471 0.081681
vt 0.451340 0.080922
vt 0.470932 0.081681
vt 0.339063 0.080922
vt 0.817706 0.684550
vt 0.818514 0.663726
vt 0.826035 0.661107
vt 0.825163 0.683591
vt 0.801235 0.595101
vt 0.802167 0.619147
vt 0.744177 0.621007
vt 0.743370 0.600183
vt 0.801235 0.670959
vt 0.802167 0.695005
vt 0.744177 0.696865
vt 0.743370 0.676041
vt 0.801235 0.519243
vt 0.743370 0.524325
vt 0.802167 0.798628
vt 0.801235 0.822674
vt 0.743370 0.817592
vt 0.744177 0.796768
vt 0.802167 0.646913
vt 0.743370 0.665877
vt 0.744177 0.645053
vt 0.802167 0.722771
vt 0.801235 0.746816
vt 0.743370 0.741734
vt 0.744177 0.720910
vt 0.802167 0.770862
vt 0.744177 0.772722
vt 0.801235 0.595101
vt 0.743370 0.590019
vt 0.801235 0.746816
vt 0.743370 0.751899
vt 0.752967 0.381848
vt 0.764278 0.401440
vt 0.757253 0.408466
vt 0.743370 0.384420
vt 0.826085 0.339634
vt 0.806493 0.328322
vt 0.809064 0.318725
vt 0.833110 0.332608
vt 0.826085 0.401440
vt 0.837396 0.381848
vt 0.846993 0.384420
vt 0.833110 0.408466
vt 0.752967 0.359225
vt 0.743370 0.356654
vt 0.783870 0.412751
vt 0.781299 0.422349
vt 0.783870 0.328322
vt 0.781299 0.318725
vt 0.837396 0.359225
vt 0.846993 0.356654
vt 0.806493 0.412751
vt 0.809064 0.422349
vt 0.764278 0.339634
vt 0.757253 0.332608
vt 0.803417 0.326327
vt 0.803965 0.340447
vt 0.794754 0.340447
vt 0.794206 0.326327
vt 0.817706 0.542686
vt 0.818514 0.521862
vt 0.826035 0.519243
vt 0.825163 0.541728
vt 0.817706 0.779527
vt 0.817706 0.755481
vt 0.825163 0.754523
vt 0.825163 0.780486
vt 0.817706 0.613618
vt 0.818514 0.592794
vt 0.826035 0.590175
vt 0.825163 0.612659
vt 0.817706 0.708595
vt 0.825163 0.709554
vt 0.817706 0.566732
vt 0.825163 0.567690
vt 0.818514 0.800351
vt 0.826035 0.802970
vt 0.817706 0.637663
vt 0.825163 0.638622
vt 0.818514 0.729419
vt 0.826035 0.732038
vt 0.818514 0.587556
vt 0.818514 0.658487
vt 0.818514 0.734657
vt 0.827283 0.506262
vt 0.804798 0.519243
vt 0.778836 0.519243
vt 0.756351 0.506262
vt 0.743370 0.483777
vt 0.743370 0.457814
vt 0.756351 0.435330
vt 0.778836 0.422349
vt 0.804798 0.422349
vt 0.827283 0.435330
vt 0.840264 0.457814
vt 0.840264 0.483777
vt 0.803965 0.401296
vt 0.803417 0.415416
vt 0.794206 0.415416
vt 0.794754 0.401296
vt 0.803965 0.445840
vt 0.803417 0.459960
vt 0.794206 0.459960
vt 0.794754 0.445840
vt 0.803965 0.490385
vt 0.803417 0.504505
vt 0.794206 0.504505
vt 0.794754 0.490385
vt 0.803965 0.384991
vt 0.794754 0.384991
vt 0.803965 0.356751
vt 0.803417 0.370871
vt 0.794206 0.370871
vt 0.794754 0.356751
vt 0.803965 0.429536
vt 0.794754 0.429536
vt 0.803965 0.474080
vt 0.794754 0.474080
vt 0.803417 0.370871
vt 0.794206 0.370871
vt 0.803417 0.459960
vt 0.165935 0.739682
vt 0.102216 0.739682
vt 0.047033 0.737542
vt 0.743370 0.737542
vt 0.688187 0.739682
vt 0.624468 0.739682
vt 0.569286 0.737542
vt 0.782280 0.279815
vt 0.753001 0.229102
vt 0.753001 0.170545
vt 0.782280 0.119832
vt 0.832993 0.090554
vt 0.891550 0.090554
vt 0.942262 0.119832
vt 0.971541 0.170545
vt 0.971541 0.229102
vt 0.942262 0.279815
vt 0.891550 0.309093
vt 0.832993 0.309093
vt 0.514103 0.933845
vt 0.514103 0.739682
vt 0.569286 0.737542
vt 0.569286 0.931705
vt 0.569286 0.931705
vt 0.624468 0.933845
vt 0.624468 0.933845
vt 0.688187 0.933845
vt 0.743370 0.931705
vt 0.047033 0.931705
vt 0.102216 0.933845
vt 0.165935 0.933845
vt 0.221117 0.737542
vt 0.221117 0.931705
vt 0.221117 0.931705
vt 0.276300 0.739682
vt 0.276300 0.933845
vt 0.450384 0.933845
vt 0.450384 0.739682
vt 0.395201 0.737542
vt 0.395201 0.931705
vt 0.448149 0.947354
vt 0.397437 0.945388
vt 0.511522 0.947441
vt 0.452965 0.947441
vt 0.567050 0.945388
vt 0.516338 0.947354
vt 0.622233 0.947354
vt 0.571521 0.945388
vt 0.685606 0.947441
vt 0.627049 0.947441
vt 0.741135 0.945388
vt 0.690422 0.947354
vt 0.099981 0.947355
vt 0.049268 0.945388
vt 0.163354 0.947441
vt 0.104797 0.947441
vt 0.218882 0.945388
vt 0.168170 0.947355
vt 0.274065 0.947355
vt 0.223352 0.945388
vt 0.337438 0.947441
vt 0.278881 0.947441
vt 0.392966 0.945388
vt 0.342254 0.947355
s 1
usemtl Beer_bottle
f 109/1/109 1/2/1 2/3/2 110/4/110
f 110/4/110 2/3/2 3/5/3 111/6/111
f 111/6/111 3/5/3 4/7/4 112/8/112
f 112/9/112 4/10/4 5/11/5 113/12/113
f 113/12/113 5/11/5 6/13/6 114/14/114
f 114/14/114 6/13/6 7/15/7 115/16/115
f 115/17/115 7/18/7 8/19/8 116/20/116
f 116/20/116 8/19/8 9/21/9 117/22/117
f 117/22/117 9/21/9 10/23/10 118/24/118
f 118/24/118 10/23/10 11/25/11 119/26/119
f 6/13/6 5/11/5 17/27/17 18/28/18
f 119/26/119 11/25/11 12/29/12 120/30/120
f 120/30/120 12/29/12 1/31/1 109/32/109
f 180/33/172 131/34/131 132/35/132 158/36/150
f 19/37/19 18/28/18 30/38/30 31/39/31
f 5/11/5 4/10/4 16/40/16 17/27/17
f 1/31/1 12/29/12 24/41/24 14/42/14
f 2/3/2 1/2/1 14/43/14 13/44/13
f 4/7/4 3/5/3 15/45/15 16/46/16
f 12/29/12 11/25/11 23/47/23 24/41/24
f 3/5/3 2/3/2 13/44/13 15/45/15
f 11/25/11 10/23/10 22/48/22 23/47/23
f 10/23/10 9/21/9 21/49/21 22/50/22
f 9/21/9 8/19/8 20/51/20 21/49/21
f 8/19/8 7/18/7 19/52/19 20/51/20
f 7/15/7 6/13/6 18/28/18 19/37/19
f 31/39/31 30/38/30 42/53/42 43/54/43
f 16/46/16 15/45/15 27/55/27 28/56/28
f 23/47/23 22/48/22 34/57/34 35/58/35
f 20/51/20 19/52/19 31/59/31 32/60/32
f 17/27/17 16/40/16 28/61/28 29/62/29
f 24/41/24 23/47/23 35/58/35 36/63/36
f 13/44/13 14/43/14 26/64/26 25/65/25
f 21/49/21 20/51/20 32/60/32 33/66/33
f 18/28/18 17/27/17 29/62/29 30/38/30
f 14/42/14 24/41/24 36/63/36 26/67/26
f 15/45/15 13/44/13 25/65/25 27/55/27
f 22/50/22 21/49/21 33/66/33 34/68/34
f 46/69/46 45/70/45 57/71/57 58/72/58
f 28/56/28 27/55/27 39/73/39 40/74/40
f 35/58/35 34/57/34 46/75/46 47/76/47
f 32/60/32 31/59/31 43/77/43 44/78/44
f 29/62/29 28/61/28 40/79/40 41/80/41
f 36/63/36 35/58/35 47/76/47 48/81/48
f 25/65/25 26/64/26 38/82/38 37/83/37
f 33/66/33 32/60/32 44/78/44 45/70/45
f 30/38/30 29/62/29 41/80/41 42/53/42
f 26/67/26 36/63/36 48/81/48 38/84/38
f 27/55/27 25/65/25 37/83/37 39/73/39
f 34/68/34 33/66/33 45/70/45 46/69/46
f 74/85/74 73/86/73 61/87/61 63/88/63
f 43/54/43 42/53/42 54/89/54 55/90/55
f 40/74/40 39/73/39 51/91/51 52/92/52
f 47/76/47 46/75/46 58/93/58 59/94/59
f 44/78/44 43/77/43 55/95/55 56/96/56
f 41/80/41 40/79/40 52/97/52 53/98/53
f 48/81/48 47/76/47 59/94/59 60/99/60
f 37/83/37 38/82/38 50/100/50 49/101/49
f 45/70/45 44/78/44 56/96/56 57/71/57
f 42/53/42 41/80/41 53/98/53 54/89/54
f 38/84/38 48/81/48 60/99/60 50/102/50
f 39/73/39 37/83/37 49/101/49 51/91/51
f 68/103/68 67/104/67 91/105/91 92/106/92
f 76/107/76 75/108/75 69/109/69 70/110/70
f 78/111/78 77/112/77 66/113/66 67/114/67
f 79/115/79 74/85/74 63/88/63 64/116/64
f 80/117/80 76/118/76 70/119/70 71/120/71
f 81/121/81 78/111/78 67/122/67 68/123/68
f 82/124/82 79/125/79 64/126/64 65/127/65
f 83/128/83 80/117/80 71/120/71 72/129/72
f 73/86/73 84/130/84 62/131/62 61/87/61
f 75/108/75 81/121/81 68/123/68 69/109/69
f 77/112/77 82/124/82 65/127/65 66/113/66
f 84/132/84 83/128/83 72/129/72 62/133/62
f 50/134/50 60/135/60 83/136/83 84/137/84
f 54/138/54 53/139/53 82/140/82 77/141/77
f 57/142/57 56/143/56 81/144/81 75/145/75
f 49/146/49 50/134/50 84/137/84 73/147/73
f 60/135/60 59/148/59 80/149/80 83/136/83
f 53/139/53 52/150/52 79/151/79 82/140/82
f 56/143/56 55/152/55 78/153/78 81/144/81
f 59/148/59 58/154/58 76/155/76 80/149/80
f 52/150/52 51/156/51 74/157/74 79/151/79
f 55/152/55 54/138/54 77/141/77 78/153/78
f 58/154/58 57/142/57 75/145/75 76/155/76
f 51/156/51 49/146/49 73/147/73 74/157/74
f 88/158/88 87/159/87 99/160/99 100/161/100
f 65/162/65 64/163/64 88/164/88 89/165/89
f 72/166/72 71/167/71 95/168/95 96/169/96
f 61/170/61 62/171/62 86/172/86 85/173/85
f 69/174/69 68/103/68 92/106/92 93/175/93
f 66/176/66 65/162/65 89/165/89 90/177/90
f 62/178/62 72/166/72 96/169/96 86/179/86
f 63/180/63 61/170/61 85/173/85 87/181/87
f 70/182/70 69/174/69 93/175/93 94/183/94
f 67/184/67 66/176/66 90/177/90 91/172/91
f 64/185/64 63/180/63 87/181/87 88/105/88
f 71/167/71 70/186/70 94/183/94 95/168/95
f 97/187/97 98/188/98 108/189/108 107/190/107 106/191/106 105/192/105 104/193/104 103/194/103 102/195/102 101/196/101 100/197/100 99/198/99
f 95/199/95 94/200/94 106/201/106 107/202/107
f 92/203/92 91/204/91 103/205/103 104/206/104
f 89/207/89 88/208/88 100/209/100 101/210/101
f 96/211/96 95/199/95 107/202/107 108/212/108
f 85/213/85 86/214/86 98/215/98 97/216/97
f 93/217/93 92/203/92 104/206/104 105/218/105
f 90/219/90 89/207/89 101/210/101 102/220/102
f 86/221/86 96/211/96 108/212/108 98/222/98
f 87/159/87 85/213/85 97/216/97 99/160/99
f 94/200/94 93/217/93 105/218/105 106/201/106
f 91/223/91 90/219/90 102/220/102 103/205/103
f 128/224/128 127/225/127 152/225/144 153/224/145
f 119/26/119 120/30/120 135/30/108 136/26/134
f 112/9/112 113/12/113 142/12/136 143/9/100
f 127/225/127 126/226/126 151/226/143 152/225/144
f 120/30/120 109/32/109 134/32/98 135/30/108
f 113/12/113 114/14/114 141/14/102 142/12/136
f 126/227/126 125/228/125 150/228/142 151/227/143
f 114/14/114 115/16/115 140/16/103 141/14/102
f 125/228/125 124/229/124 149/229/141 150/228/142
f 132/35/132 131/34/131 156/34/148 133/35/133
f 115/17/115 116/20/116 139/20/135 140/17/103
f 124/229/124 123/230/123 148/230/140 149/229/141
f 157/231/149 159/232/151 161/233/153 163/234/155 165/235/157 167/236/159 169/237/161 171/238/163 173/239/165 175/240/167 177/241/169 179/242/171
f 162/243/154 122/244/122 123/245/123 164/246/156
f 164/247/156 123/230/123 124/229/124 166/248/158
f 166/249/158 124/229/124 125/228/125 168/250/160
f 168/250/160 125/228/125 126/227/126 170/251/162
f 170/252/162 126/226/126 127/225/127 172/253/164
f 172/253/164 127/225/127 128/224/128 174/254/166
f 174/254/166 128/224/128 129/255/129 176/256/168
f 176/257/168 129/255/129 130/258/130 178/259/170
f 178/259/170 130/258/130 131/34/131 180/33/172
f 160/260/152 121/261/121 122/244/122 162/243/154
f 156/34/148 135/30/108 134/32/98 133/35/133
f 155/258/147 136/26/134 135/30/108 156/34/148
f 154/255/146 137/24/106 136/26/134 155/258/147
f 153/224/145 138/22/105 137/24/106 154/255/146
f 152/225/144 139/20/135 138/22/105 153/224/145
f 151/226/143 140/17/103 139/20/135 152/225/144
f 150/228/142 141/14/102 140/16/103 151/227/143
f 149/229/141 142/12/136 141/14/102 150/228/142
f 148/230/140 143/9/100 142/12/136 149/229/141
f 147/244/139 144/6/99 143/8/100 148/245/140
f 146/261/138 145/4/137 144/6/99 147/244/139
f 133/262/133 134/1/98 145/4/137 146/261/138
f 111/6/111 112/8/112 143/8/100 144/6/99
f 121/261/121 132/262/132 133/262/133 146/261/138
f 118/24/118 119/26/119 136/26/134 137/24/106
f 129/255/129 128/224/128 153/224/145 154/255/146
f 110/4/110 111/6/111 144/6/99 145/4/137
f 122/244/122 121/261/121 146/261/138 147/244/139
f 117/22/117 118/24/118 137/24/106 138/22/105
f 130/258/130 129/255/129 154/255/146 155/258/147
f 109/1/109 110/4/110 145/4/137 134/1/98
f 123/245/123 122/244/122 147/244/139 148/245/140
f 116/20/116 117/22/117 138/22/105 139/20/135
f 131/34/131 130/258/130 155/258/147 156/34/148
f 158/263/150 160/260/152 159/264/151 157/265/149
f 160/260/152 162/243/154 161/266/153 159/267/151
f 162/243/154 164/246/156 163/268/155 161/269/153
f 164/247/156 166/248/158 165/270/157 163/271/155
f 166/249/158 168/250/160 167/272/159 165/273/157
f 168/250/160 170/251/162 169/274/161 167/275/159
f 170/252/162 172/253/164 171/276/163 169/277/161
f 172/253/164 174/254/166 173/278/165 171/279/163
f 174/254/166 176/256/168 175/280/167 173/281/165
f 176/257/168 178/259/170 177/282/169 175/283/167
f 178/259/170 180/33/172 179/284/171 177/285/169
f 180/33/172 158/36/150 157/286/149 179/287/171
f 158/263/150 132/262/132 121/261/121 160/260/152
