# Blender 4.3.2
# www.blender.org
mtllib Chipsy_Chunks_box.mtl
o Chipsy_Chunks_box
v -0.135576 -0.206736 0.049541
v -0.135576 0.206736 0.049541
v -0.135576 -0.206736 -0.049541
v -0.135576 0.206736 -0.049541
v 0.135576 -0.206736 0.049541
v 0.135576 0.206736 0.049541
v 0.135576 -0.206736 -0.049541
v 0.135576 0.206736 -0.049541
vn -1.0000 -0.0000 -0.0000
vn -0.0000 -0.0000 -1.0000
vn 1.0000 -0.0000 -0.0000
vn -0.0000 -0.0000 1.0000
vn -0.0000 -1.0000 -0.0000
vn -0.0000 1.0000 -0.0000
vt 0.652992 0.305968
vt 0.652992 0.695733
vt 0.530054 0.695733
vt 0.530054 0.305968
vt 0.529867 0.329941
vt 0.529867 0.661900
vt 0.324091 0.661900
vt 0.324091 0.329941
vt 0.738663 0.314069
vt 0.738663 0.667979
vt 0.659773 0.667979
vt 0.659773 0.314069
vt 0.526471 0.331950
vt 0.526471 0.671019
vt 0.325272 0.671019
vt 0.325272 0.331950
vt 0.502178 0.330673
vt 0.337682 0.330673
vt 0.337682 0.279182
vt 0.502178 0.279182
vt 0.517345 0.728941
vt 0.324202 0.728941
vt 0.324202 0.673064
vt 0.517345 0.673064
s 0
usemtl cereals_03
f 1/1/1 2/2/1 4/3/1 3/4/1
f 3/5/2 4/6/2 8/7/2 7/8/2
f 7/9/3 8/10/3 6/11/3 5/12/3
f 5/13/4 6/14/4 2/15/4 1/16/4
f 3/17/5 7/18/5 5/19/5 1/20/5
f 8/21/6 4/22/6 2/23/6 6/24/6
