# Blender 4.3.2
# www.blender.org
mtllib chocolate_bar_open.mtl
o chocolate_bar_open
v -0.057356 -0.010500 0.163116
v -0.057356 0.010500 0.163116
v -0.055331 -0.008476 -0.095829
v -0.055331 0.008476 -0.095829
v 0.057356 -0.010500 0.163116
v 0.057356 0.010500 0.163116
v 0.055331 -0.008476 -0.095829
v 0.055331 0.008476 -0.095829
v -0.057356 0.010500 -0.095829
v -0.057356 -0.010500 -0.095829
v 0.057356 -0.010500 -0.095829
v 0.057356 0.010500 -0.095829
v -0.055331 0.008476 -0.163116
v -0.055331 -0.008476 -0.163116
v 0.055331 -0.008476 -0.163116
v 0.055331 0.008476 -0.163116
vn -1.0000 -0.0000 -0.0000
vn 1.0000 -0.0000 -0.0000
vn -0.0000 -0.0000 1.0000
vn -0.0000 -1.0000 -0.0000
vn -0.0000 1.0000 -0.0000
vn -0.0000 -0.0000 -1.0000
vt 0.988384 0.853554
vt 0.832358 0.853554
vt 0.832358 0.149769
vt 0.988384 0.149769
vt 0.853643 0.257366
vt 0.929099 0.257366
vt 0.929099 0.556872
vt 0.853643 0.556872
vt 0.126094 0.871074
vt 0.039360 0.871074
vt 0.039360 0.142243
vt 0.126094 0.142243
vt 0.033568 0.316268
vt 0.130298 0.316268
vt 0.130298 0.708543
vt 0.033568 0.708543
vt 0.561870 0.868968
vt 0.155998 0.868968
vt 0.155998 0.131254
vt 0.561870 0.131254
vt 0.561786 0.882857
vt 0.140631 0.882857
vt 0.140631 0.117365
vt 0.561786 0.117365
vt 0.537574 0.950614
vt 0.537574 0.868916
vt 0.544387 0.859160
vt 0.544387 0.960370
vt 0.165140 0.868916
vt 0.158327 0.859160
vt 0.165140 0.950614
vt 0.158327 0.960370
vt 0.853643 0.749946
vt 0.778187 0.749946
vt 0.778187 0.257366
vt 0.853643 0.257366
vt 0.478003 0.749946
vt 0.478003 0.257366
vt 0.777509 0.257366
vt 0.777509 0.749946
vt 0.471367 0.592759
vt 0.191001 0.592759
vt 0.191001 0.346344
vt 0.471367 0.346344
vt 0.929099 0.856378
vt 0.853643 0.856378
vt 0.853643 0.556872
vt 0.929099 0.556872
s 0
usemtl Chocolate_bar
f 1/1/1 2/2/1 9/3/1 10/4/1
f 11/9/2 12/10/2 6/11/2 5/12/2
f 5/13/3 6/14/3 2/15/3 1/16/3
f 10/17/4 11/18/4 5/19/4 1/20/4
f 12/21/5 9/22/5 2/23/5 6/24/5
f 4/25/6 3/26/6 10/27/6 9/28/6
f 3/26/6 7/29/6 11/30/6 10/27/6
f 8/31/6 4/25/6 9/28/6 12/32/6
f 7/29/6 8/31/6 12/32/6 11/30/6
usemtl chocolate
f 8/5/2 7/6/2 15/7/2 16/8/2
f 14/33/6 13/34/6 16/35/6 15/36/6
f 7/37/4 3/38/4 14/39/4 15/40/4
f 4/41/5 8/42/5 16/43/5 13/44/5
f 3/45/1 4/46/1 13/47/1 14/48/1
