# Blender 4.3.2
# www.blender.org
mtllib chocolate_bar_close.mtl
o chocolate_bar_close
v -0.057356 -0.010500 0.129472
v -0.057356 0.010500 0.129472
v -0.057356 -0.010500 -0.129472
v -0.057356 0.010500 -0.129472
v 0.057356 -0.010500 0.129472
v 0.057356 0.010500 0.129472
v 0.057356 -0.010500 -0.129472
v 0.057356 0.010500 -0.129472
vn -1.0000 -0.0000 -0.0000
vn -0.0000 -0.0000 -1.0000
vn 1.0000 -0.0000 -0.0000
vn -0.0000 -0.0000 1.0000
vn -0.0000 -1.0000 -0.0000
vn -0.0000 1.0000 -0.0000
vt 0.988384 0.853554
vt 0.832358 0.853554
vt 0.832358 0.149769
vt 0.988384 0.149769
vt 0.544387 0.859160
vt 0.544387 0.960370
vt 0.158327 0.960370
vt 0.158327 0.859160
vt 0.126094 0.871074
vt 0.039360 0.871074
vt 0.039360 0.142243
vt 0.126094 0.142243
vt 0.033568 0.316268
vt 0.130298 0.316268
vt 0.130298 0.708543
vt 0.033568 0.708543
vt 0.561870 0.868968
vt 0.155998 0.868968
vt 0.155998 0.131254
vt 0.561870 0.131254
vt 0.561786 0.882857
vt 0.140631 0.882857
vt 0.140631 0.117365
vt 0.561786 0.117365
s 0
usemtl Chocolate_bar
f 1/1/1 2/2/1 4/3/1 3/4/1
f 3/5/2 4/6/2 8/7/2 7/8/2
f 7/9/3 8/10/3 6/11/3 5/12/3
f 5/13/4 6/14/4 2/15/4 1/16/4
f 3/17/5 7/18/5 5/19/5 1/20/5
f 8/21/6 4/22/6 2/23/6 6/24/6
