# Blender 4.3.2
# www.blender.org
mtllib glass_of_beer_02.mtl
o glass_of_beer.02
v -0.000330 -0.097108 -0.045882
v -0.000330 0.059447 -0.045882
v 0.022310 -0.097108 -0.039815
v 0.022310 0.059447 -0.039815
v 0.038884 -0.097108 -0.023242
v 0.038884 0.059447 -0.023242
v 0.044950 -0.097108 -0.000602
v 0.044950 0.059447 -0.000602
v 0.038884 -0.097108 0.022038
v 0.038884 0.059447 0.022038
v 0.022310 -0.097108 0.038612
v 0.022310 0.059447 0.038612
v -0.000330 -0.097108 0.044678
v -0.000330 0.059447 0.044678
v -0.022970 -0.097108 0.038612
v -0.022970 0.059447 0.038612
v -0.039543 -0.097108 0.022038
v -0.039543 0.059447 0.022038
v -0.045609 -0.097108 -0.000602
v -0.045609 0.059447 -0.000602
v -0.039543 -0.097108 -0.023242
v -0.039543 0.059447 -0.023242
v -0.022970 -0.097108 -0.039815
v -0.022970 0.059447 -0.039815
v 0.000000 -0.102914 -0.049462
v 0.000000 0.102914 -0.045454
v 0.024731 -0.102914 -0.042835
v 0.022727 0.102914 -0.039364
v 0.042835 -0.102914 -0.024731
v 0.039364 0.102914 -0.022727
v 0.049462 -0.102914 0.000000
v 0.045454 0.102914 0.000000
v 0.042835 -0.102914 0.024731
v 0.039364 0.102914 0.022727
v 0.024731 -0.102914 0.042835
v 0.022727 0.102914 0.039364
v 0.000000 -0.102914 0.049462
v 0.000000 0.102914 0.045454
v -0.024731 -0.102914 0.042835
v -0.022727 0.102914 0.039364
v -0.042835 -0.102914 0.024731
v -0.039364 0.102914 0.022727
v -0.049462 -0.102914 0.000000
v -0.045454 0.102914 0.000000
v -0.042835 -0.102914 -0.024731
v -0.039364 0.102914 -0.022727
v -0.024731 -0.102914 -0.042835
v -0.022727 0.102914 -0.039364
v 0.024731 0.102914 -0.042835
v 0.000000 0.102914 -0.049462
v 0.042835 0.102914 -0.024731
v 0.049462 0.102914 0.000000
v 0.042835 0.102914 0.024731
v 0.024731 0.102914 0.042835
v 0.000000 0.102914 0.049462
v -0.024731 0.102914 0.042835
v -0.042835 0.102914 0.024731
v -0.049462 0.102914 0.000000
v -0.042835 0.102914 -0.024731
v -0.024731 0.102914 -0.042835
v 0.022727 -0.092591 -0.039364
v 0.000000 -0.092591 -0.045454
v 0.039364 -0.092591 -0.022727
v 0.045454 -0.092591 0.000000
v 0.039364 -0.092591 0.022727
v 0.022727 -0.092591 0.039364
v 0.000000 -0.092591 0.045454
v -0.022727 -0.092591 0.039364
v -0.039364 -0.092591 0.022727
v -0.045454 -0.092591 0.000000
v -0.039364 -0.092591 -0.022727
v -0.022727 -0.092591 -0.039364
v 0.000000 -0.092245 -0.049462
v 0.024731 -0.092245 -0.042835
v 0.042835 -0.092245 -0.024731
v 0.049462 -0.092245 0.000000
v 0.042835 -0.092245 0.024731
v 0.024731 -0.092245 0.042835
v 0.000000 -0.092245 0.049462
v -0.024731 -0.092245 0.042835
v -0.042835 -0.092245 0.024731
v -0.049462 -0.092245 0.000000
v -0.042835 -0.092245 -0.024731
v -0.024731 -0.092245 -0.042835
vn 0.2588 -0.0000 -0.9659
vn 0.7071 -0.0000 -0.7071
vn 0.9659 -0.0000 -0.2588
vn 0.9659 -0.0000 0.2588
vn 0.7071 -0.0000 0.7071
vn 0.2588 -0.0000 0.9659
vn -0.2588 -0.0000 0.9659
vn -0.7071 -0.0000 0.7071
vn -0.9659 -0.0000 0.2588
vn -0.9659 -0.0000 -0.2588
vn -0.0000 1.0000 -0.0000
vn -0.7071 -0.0000 -0.7071
vn -0.2588 -0.0000 -0.9659
vn -0.0000 -1.0000 -0.0000
vn -0.0000 -0.0000 -1.0000
vn -0.0000 0.6532 -0.7572
vn 0.3786 0.6532 -0.6557
vn 0.5000 -0.0000 -0.8660
vn 0.6557 0.6532 -0.3786
vn 0.8660 -0.0000 -0.5000
vn 0.7572 0.6532 -0.0000
vn 1.0000 -0.0000 -0.0000
vn 0.6557 0.6532 0.3786
vn 0.8660 -0.0000 0.5000
vn 0.3786 0.6532 0.6557
vn 0.5000 -0.0000 0.8660
vn -0.0000 0.6532 0.7572
vn -0.0000 -0.0000 1.0000
vn -0.3786 0.6532 0.6557
vn -0.5000 -0.0000 0.8660
vn -0.6557 0.6532 0.3786
vn -0.8660 -0.0000 0.5000
vn -0.7572 0.6532 -0.0000
vn -1.0000 -0.0000 -0.0000
vn -0.6557 0.6532 -0.3786
vn -0.8660 -0.0000 -0.5000
vn -0.6377 0.7703 -0.0000
vn -0.5523 0.7703 0.3189
vn -0.3786 0.6532 -0.6557
vn -0.5000 -0.0000 -0.8660
vn -0.0000 -0.6532 -0.7572
vn 0.3786 -0.6532 -0.6557
vn 0.6557 -0.6532 -0.3786
vn 0.7572 -0.6532 -0.0000
vn 0.6557 -0.6532 0.3786
vn 0.3786 -0.6532 0.6557
vn -0.0000 -0.6532 0.7572
vn -0.3786 -0.6532 0.6557
vn -0.6557 -0.6532 0.3786
vn -0.7572 -0.6532 -0.0000
vn -0.6557 -0.6532 -0.3786
vn -0.3786 -0.6532 -0.6557
vn -0.0000 0.7703 0.6377
vn -0.3189 0.7703 0.5523
vn -0.5523 0.7703 -0.3189
vn -0.3189 0.7703 -0.5523
vn -0.0000 0.7703 -0.6377
vn 0.3189 0.7703 -0.5523
vn 0.5523 0.7703 -0.3189
vn 0.6377 0.7703 -0.0000
vn 0.5523 0.7703 0.3189
vn 0.3189 0.7703 0.5523
vt 1.000000 0.500000
vt 1.000000 1.000000
vt 0.916667 1.000000
vt 0.916667 0.500000
vt 0.833333 1.000000
vt 0.833333 0.500000
vt 0.750000 1.000000
vt 0.750000 0.500000
vt 0.666667 1.000000
vt 0.666667 0.500000
vt 0.583333 1.000000
vt 0.583333 0.500000
vt 0.500000 1.000000
vt 0.500000 0.500000
vt 0.416667 1.000000
vt 0.416667 0.500000
vt 0.333333 1.000000
vt 0.333333 0.500000
vt 0.250000 1.000000
vt 0.250000 0.500000
vt 0.166667 1.000000
vt 0.166667 0.500000
vt 0.370000 0.457846
vt 0.250000 0.490000
vt 0.130000 0.457846
vt 0.042154 0.370000
vt 0.010000 0.250000
vt 0.042154 0.130000
vt 0.130000 0.042154
vt 0.250000 0.010000
vt 0.370000 0.042154
vt 0.457846 0.130000
vt 0.490000 0.250000
vt 0.457846 0.370000
vt 0.083333 1.000000
vt 0.083333 0.500000
vt 0.000000 1.000000
vt 0.000000 0.500000
vt 0.750000 0.490000
vt 0.870000 0.457846
vt 0.957846 0.370000
vt 0.990000 0.250000
vt 0.957846 0.130000
vt 0.870000 0.042154
vt 0.750000 0.010000
vt 0.630000 0.042154
vt 0.542154 0.130000
vt 0.510000 0.250000
vt 0.542154 0.370000
vt 0.630000 0.457846
vt 1.000000 0.525916
vt 0.916667 0.525916
vt 0.833333 0.525916
vt 0.750000 0.525916
vt 0.666667 0.525916
vt 0.583333 0.525916
vt 0.500000 0.525916
vt 0.416667 0.525916
vt 0.333333 0.525916
vt 0.250000 0.525916
vt 0.166667 0.525916
vt 0.470554 0.250000
vt 0.441005 0.360277
vt 0.083333 0.525916
vt 0.000000 0.525916
vt 0.250000 0.470554
vt 0.360277 0.441005
vt 0.441005 0.139723
vt 0.360277 0.058995
vt 0.250000 0.029446
vt 0.139723 0.058995
vt 0.058995 0.139723
vt 0.029446 0.250000
vt 0.058995 0.360277
vt 0.139723 0.441005
s 1
usemtl glass
f 73/51/15 50/2/16 49/3/17 74/52/18
f 74/52/18 49/3/17 51/5/19 75/53/20
f 75/53/20 51/5/19 52/7/21 76/54/22
f 76/54/22 52/7/21 53/9/23 77/55/24
f 77/55/24 53/9/23 54/11/25 78/56/26
f 78/56/26 54/11/25 55/13/27 79/57/28
f 79/57/28 55/13/27 56/15/29 80/58/30
f 80/58/30 56/15/29 57/17/31 81/59/32
f 81/59/32 57/17/31 58/19/33 82/60/34
f 82/60/34 58/19/33 59/21/35 83/61/36
f 32/62/37 30/63/38 63/63/31 64/62/33
f 83/61/36 59/21/35 60/35/39 84/64/40
f 84/64/40 60/35/39 50/37/16 73/65/15
f 26/66/53 28/67/54 49/23/17 50/24/16
f 28/67/54 30/63/38 51/34/19 49/23/17
f 30/63/38 32/62/37 52/33/21 51/34/19
f 32/62/37 34/68/55 53/32/23 52/33/21
f 34/68/55 36/69/56 54/31/25 53/32/23
f 36/69/56 38/70/57 55/30/27 54/31/25
f 38/70/57 40/71/58 56/29/29 55/30/27
f 40/71/58 42/72/59 57/28/31 56/29/29
f 42/72/59 44/73/60 58/27/33 57/28/31
f 44/73/60 46/74/61 59/26/35 58/27/33
f 46/74/61 48/75/62 60/25/39 59/26/35
f 48/75/62 26/66/53 50/24/16 60/25/39
f 46/74/61 44/73/60 70/73/21 71/74/23
f 40/71/58 38/70/57 67/70/16 68/71/17
f 34/68/55 32/62/37 64/62/33 65/68/35
f 48/75/62 46/74/61 71/74/23 72/75/25
f 28/67/54 26/66/53 62/66/27 61/67/29
f 42/72/59 40/71/58 68/71/17 69/72/19
f 36/69/56 34/68/55 65/68/35 66/69/39
f 26/66/53 48/75/62 72/75/25 62/66/27
f 30/63/38 28/67/54 61/67/29 63/63/31
f 44/73/60 42/72/59 69/72/19 70/73/21
f 38/70/57 36/69/56 66/69/39 67/70/16
usemtl glass_bot
f 25/39/41 27/40/42 29/41/43 31/42/44 33/43/45 35/44/46 37/45/47 39/46/48 41/47/49 43/48/50 45/49/51 47/50/52
f 61/67/29 62/66/27 72/75/25 71/74/23 70/73/21 69/72/19 68/71/17 67/70/16 66/69/39 65/68/35 64/62/33 63/63/31
f 47/36/52 84/64/40 73/65/15 25/38/41
f 45/22/51 83/61/36 84/64/40 47/36/52
f 43/20/50 82/60/34 83/61/36 45/22/51
f 41/18/49 81/59/32 82/60/34 43/20/50
f 39/16/48 80/58/30 81/59/32 41/18/49
f 37/14/47 79/57/28 80/58/30 39/16/48
f 35/12/46 78/56/26 79/57/28 37/14/47
f 33/10/45 77/55/24 78/56/26 35/12/46
f 31/8/44 76/54/22 77/55/24 33/10/45
f 29/6/43 75/53/20 76/54/22 31/8/44
f 27/4/42 74/52/18 75/53/20 29/6/43
f 25/1/41 73/51/15 74/52/18 27/4/42
s 0
usemtl beer/vodka
f 1/1/1 2/2/1 4/3/1 3/4/1
f 3/4/2 4/3/2 6/5/2 5/6/2
f 5/6/3 6/5/3 8/7/3 7/8/3
f 7/8/4 8/7/4 10/9/4 9/10/4
f 9/10/5 10/9/5 12/11/5 11/12/5
f 11/12/6 12/11/6 14/13/6 13/14/6
f 13/14/7 14/13/7 16/15/7 15/16/7
f 15/16/8 16/15/8 18/17/8 17/18/8
f 17/18/9 18/17/9 20/19/9 19/20/9
f 19/20/10 20/19/10 22/21/10 21/22/10
f 4/23/11 2/24/11 24/25/11 22/26/11 20/27/11 18/28/11 16/29/11 14/30/11 12/31/11 10/32/11 8/33/11 6/34/11
f 21/22/12 22/21/12 24/35/12 23/36/12
f 23/36/13 24/35/13 2/37/13 1/38/13
f 1/39/14 3/40/14 5/41/14 7/42/14 9/43/14 11/44/14 13/45/14 15/46/14 17/47/14 19/48/14 21/49/14 23/50/14
