# Blender 4.3.2
# www.blender.org
mtllib glass_of_water.mtl
o glass_of_water
v 0.000039 -0.034301 -0.045539
v 0.000039 -0.002801 -0.045539
v 0.022679 -0.034301 -0.039473
v 0.022679 -0.002801 -0.039473
v 0.039252 -0.034301 -0.022899
v 0.039252 -0.002801 -0.022899
v 0.045319 -0.034301 -0.000259
v 0.045319 -0.002801 -0.000259
v 0.039252 -0.034301 0.022381
v 0.039252 -0.002801 0.022381
v 0.022679 -0.034301 0.038954
v 0.022679 -0.002801 0.038954
v 0.000039 -0.034301 0.045021
v 0.000039 -0.002801 0.045021
v -0.022601 -0.034301 0.038954
v -0.022601 -0.002801 0.038954
v -0.039175 -0.034301 0.022381
v -0.039175 -0.002801 0.022381
v -0.045241 -0.034301 -0.000259
v -0.045241 -0.002801 -0.000259
v -0.039175 -0.034301 -0.022899
v -0.039175 -0.002801 -0.022899
v -0.022601 -0.034301 -0.039473
v -0.022601 -0.002801 -0.039473
v 0.000000 -0.049462 -0.049462
v 0.000000 0.049462 -0.045454
v 0.024731 -0.049462 -0.042835
v 0.022727 0.049462 -0.039364
v 0.042835 -0.049462 -0.024731
v 0.039364 0.049462 -0.022727
v 0.049462 -0.049462 0.000000
v 0.045454 0.049462 0.000000
v 0.042835 -0.049462 0.024731
v 0.039364 0.049462 0.022727
v 0.024731 -0.049462 0.042835
v 0.022727 0.049462 0.039364
v 0.000000 -0.049462 0.049462
v 0.000000 0.049462 0.045454
v -0.024731 -0.049462 0.042835
v -0.022727 0.049462 0.039364
v -0.042835 -0.049462 0.024731
v -0.039364 0.049462 0.022727
v -0.049462 -0.049462 0.000000
v -0.045454 0.049462 0.000000
v -0.042835 -0.049462 -0.024731
v -0.039364 0.049462 -0.022727
v -0.024731 -0.049462 -0.042835
v -0.022727 0.049462 -0.039364
v 0.024731 0.049462 -0.042835
v 0.000000 0.049462 -0.049462
v 0.042835 0.049462 -0.024731
v 0.049462 0.049462 0.000000
v 0.042835 0.049462 0.024731
v 0.024731 0.049462 0.042835
v 0.000000 0.049462 0.049462
v -0.024731 0.049462 0.042835
v -0.042835 0.049462 0.024731
v -0.049462 0.049462 0.000000
v -0.042835 0.049462 -0.024731
v -0.024731 0.049462 -0.042835
v 0.022727 -0.034692 -0.039364
v 0.000000 -0.034692 -0.045454
v 0.039364 -0.034692 -0.022727
v 0.045454 -0.034692 0.000000
v 0.039364 -0.034692 0.022727
v 0.022727 -0.034692 0.039364
v 0.000000 -0.034692 0.045454
v -0.022727 -0.034692 0.039364
v -0.039364 -0.034692 0.022727
v -0.045454 -0.034692 0.000000
v -0.039364 -0.034692 -0.022727
v -0.022727 -0.034692 -0.039364
v 0.022727 -0.034692 -0.039364
v 0.000000 -0.034692 -0.045454
v 0.039364 -0.034692 -0.022727
v 0.045454 -0.034692 0.000000
v 0.039364 -0.034692 0.022727
v 0.022727 -0.034692 0.039364
v 0.000000 -0.034692 0.045454
v -0.022727 -0.034692 0.039364
v -0.039364 -0.034692 0.022727
v -0.045454 -0.034692 0.000000
v -0.039364 -0.034692 -0.022727
v -0.022727 -0.034692 -0.039364
v 0.000000 -0.034351 -0.049462
v 0.024731 -0.034351 -0.042835
v 0.042835 -0.034351 -0.024731
v 0.049462 -0.034351 0.000000
v 0.042835 -0.034351 0.024731
v 0.024731 -0.034351 0.042835
v 0.000000 -0.034351 0.049462
v -0.024731 -0.034351 0.042835
v -0.042835 -0.034351 0.024731
v -0.049462 -0.034351 0.000000
v -0.042835 -0.034351 -0.024731
v -0.024731 -0.034351 -0.042835
vn 0.2588 -0.0000 -0.9659
vn 0.7071 -0.0000 -0.7071
vn 0.9659 -0.0000 -0.2588
vn 0.9659 -0.0000 0.2588
vn 0.7071 -0.0000 0.7071
vn 0.2588 -0.0000 0.9659
vn -0.2588 -0.0000 0.9659
vn -0.7071 -0.0000 0.7071
vn -0.9659 -0.0000 0.2588
vn -0.9659 -0.0000 -0.2588
vn -0.0000 1.0000 -0.0000
vn -0.7071 -0.0000 -0.7071
vn -0.2588 -0.0000 -0.9659
vn -0.0000 -1.0000 -0.0000
vn -0.0000 -0.0000 -1.0000
vn -0.0000 0.6532 -0.7572
vn 0.3786 0.6532 -0.6557
vn 0.5000 -0.0000 -0.8660
vn 0.6557 0.6532 -0.3786
vn 0.8660 -0.0000 -0.5000
vn 0.7572 0.6532 -0.0000
vn 1.0000 -0.0000 -0.0000
vn 0.6557 0.6532 0.3786
vn 0.8660 -0.0000 0.5000
vn 0.3786 0.6532 0.6557
vn 0.5000 -0.0000 0.8660
vn -0.0000 0.6532 0.7572
vn -0.0000 -0.0000 1.0000
vn -0.3786 0.6532 0.6557
vn -0.5000 -0.0000 0.8660
vn -0.6557 0.6532 0.3786
vn -0.8660 -0.0000 0.5000
vn -0.7572 0.6532 -0.0000
vn -1.0000 -0.0000 -0.0000
vn -0.6557 0.6532 -0.3786
vn -0.8660 -0.0000 -0.5000
vn -0.6947 0.7193 -0.0000
vn -0.6017 0.7193 0.3474
vn -0.3786 0.6532 -0.6557
vn -0.5000 -0.0000 -0.8660
vn -0.0000 -0.6532 -0.7572
vn 0.3786 -0.6532 -0.6557
vn 0.6557 -0.6532 -0.3786
vn 0.7572 -0.6532 -0.0000
vn 0.6557 -0.6532 0.3786
vn 0.3786 -0.6532 0.6557
vn -0.0000 -0.6532 0.7572
vn -0.3786 -0.6532 0.6557
vn -0.6557 -0.6532 0.3786
vn -0.7572 -0.6532 -0.0000
vn -0.6557 -0.6532 -0.3786
vn -0.3786 -0.6532 -0.6557
vn -0.0000 0.7703 0.6377
vn -0.3189 0.7703 0.5523
vn -0.5523 0.7703 0.3189
vn -0.6377 0.7703 -0.0000
vn -0.5523 0.7703 -0.3189
vn -0.3189 0.7703 -0.5523
vn -0.0000 0.7703 -0.6377
vn 0.3189 0.7703 -0.5523
vn 0.5523 0.7703 -0.3189
vn 0.6377 0.7703 -0.0000
vn 0.5523 0.7703 0.3189
vn 0.3189 0.7703 0.5523
vn 0.6017 0.7193 0.3474
vn 0.6947 0.7193 -0.0000
vn 0.3474 0.7193 -0.6017
vn -0.0000 0.7193 -0.6947
vn -0.6017 0.7193 -0.3474
vn 0.3474 0.7193 0.6017
vn -0.3474 0.7193 0.6017
vn -0.0000 0.7193 0.6947
vn 0.6017 0.7193 -0.3474
vn -0.3474 0.7193 -0.6017
vt 1.000000 0.500000
vt 1.000000 1.000000
vt 0.916667 1.000000
vt 0.916667 0.500000
vt 0.833333 1.000000
vt 0.833333 0.500000
vt 0.750000 1.000000
vt 0.750000 0.500000
vt 0.666667 1.000000
vt 0.666667 0.500000
vt 0.583333 1.000000
vt 0.583333 0.500000
vt 0.500000 1.000000
vt 0.500000 0.500000
vt 0.416667 1.000000
vt 0.416667 0.500000
vt 0.333333 1.000000
vt 0.333333 0.500000
vt 0.250000 1.000000
vt 0.250000 0.500000
vt 0.166667 1.000000
vt 0.166667 0.500000
vt 0.370000 0.457846
vt 0.250000 0.490000
vt 0.130000 0.457846
vt 0.042154 0.370000
vt 0.010000 0.250000
vt 0.042154 0.130000
vt 0.130000 0.042154
vt 0.250000 0.010000
vt 0.370000 0.042154
vt 0.457846 0.130000
vt 0.490000 0.250000
vt 0.457846 0.370000
vt 0.083333 1.000000
vt 0.083333 0.500000
vt 0.000000 1.000000
vt 0.000000 0.500000
vt 0.750000 0.490000
vt 0.870000 0.457846
vt 0.957846 0.370000
vt 0.990000 0.250000
vt 0.957846 0.130000
vt 0.870000 0.042154
vt 0.750000 0.010000
vt 0.630000 0.042154
vt 0.542154 0.130000
vt 0.510000 0.250000
vt 0.542154 0.370000
vt 0.630000 0.457846
vt 1.000000 0.576374
vt 0.916667 0.576374
vt 0.833333 0.576374
vt 0.750000 0.576374
vt 0.666667 0.576374
vt 0.583333 0.576374
vt 0.500000 0.576374
vt 0.416667 0.576374
vt 0.333333 0.576374
vt 0.250000 0.576374
vt 0.166667 0.576374
vt 0.936477 0.500000
vt 0.936477 0.616565
vt 0.083333 0.576374
vt 0.000000 0.576374
vt 0.250000 0.470554
vt 0.360277 0.441005
vt 0.441005 0.360277
vt 0.470554 0.250000
vt 0.441005 0.139723
vt 0.360277 0.058995
vt 0.250000 0.029446
vt 0.139723 0.058995
vt 0.058995 0.139723
vt 0.029446 0.250000
vt 0.058995 0.360277
vt 0.139723 0.441005
vt 0.063523 0.616565
vt 0.063523 0.500000
vt 0.063523 0.267466
vt 0.063523 0.147968
vt 0.936477 0.383435
vt 0.063523 0.732534
vt 0.936477 0.732534
vt 0.936477 0.842238
vt 0.063523 0.383435
vt 0.936477 0.267466
vt 0.063523 0.842238
vt 0.936477 0.147968
vt 0.504150 0.732534
vt 0.504150 0.842238
vt 0.504150 0.616565
vt 0.504150 0.500000
vt 0.504150 0.383435
vt 0.504150 0.267466
vt 0.504150 0.147968
vt 0.504150 0.267466
vt 0.504150 0.383435
vt 0.504150 0.500000
s 0
usemtl water
f 1/1/1 2/2/1 4/3/1 3/4/1
f 3/4/2 4/3/2 6/5/2 5/6/2
f 5/6/3 6/5/3 8/7/3 7/8/3
f 7/8/4 8/7/4 10/9/4 9/10/4
f 9/10/5 10/9/5 12/11/5 11/12/5
f 11/12/6 12/11/6 14/13/6 13/14/6
f 13/14/7 14/13/7 16/15/7 15/16/7
f 15/16/8 16/15/8 18/17/8 17/18/8
f 17/18/9 18/17/9 20/19/9 19/20/9
f 19/20/10 20/19/10 22/21/10 21/22/10
f 4/23/11 2/24/11 24/25/11 22/26/11 20/27/11 18/28/11 16/29/11 14/30/11 12/31/11 10/32/11 8/33/11 6/34/11
f 21/22/12 22/21/12 24/35/12 23/36/12
f 23/36/13 24/35/13 2/37/13 1/38/13
f 1/39/14 3/40/14 5/41/14 7/42/14 9/43/14 11/44/14 13/45/14 15/46/14 17/47/14 19/48/14 21/49/14 23/50/14
s 1
usemtl glass
f 85/51/15 50/2/16 49/3/17 86/52/18
f 86/52/18 49/3/17 51/5/19 87/53/20
f 87/53/20 51/5/19 52/7/21 88/54/22
f 88/54/22 52/7/21 53/9/23 89/55/24
f 89/55/24 53/9/23 54/11/25 90/56/26
f 90/56/26 54/11/25 55/13/27 91/57/28
f 91/57/28 55/13/27 56/15/29 92/58/30
f 92/58/30 56/15/29 57/17/31 93/59/32
f 93/59/32 57/17/31 58/19/33 94/60/34
f 94/60/34 58/19/33 59/21/35 95/61/36
f 76/62/37 75/63/38 63/63/11 64/62/11
f 95/61/36 59/21/35 60/35/39 96/64/40
f 96/64/40 60/35/39 50/37/16 85/65/15
f 26/66/53 28/67/54 49/23/17 50/24/16
f 28/67/54 30/68/55 51/34/19 49/23/17
f 30/68/55 32/69/56 52/33/21 51/34/19
f 32/69/56 34/70/57 53/32/23 52/33/21
f 34/70/57 36/71/58 54/31/25 53/32/23
f 36/71/58 38/72/59 55/30/27 54/31/25
f 38/72/59 40/73/60 56/29/29 55/30/27
f 40/73/60 42/74/61 57/28/31 56/29/29
f 42/74/61 44/75/62 58/27/33 57/28/31
f 44/75/62 46/76/63 59/26/35 58/27/33
f 46/76/63 48/77/64 60/25/39 59/26/35
f 48/77/64 26/66/53 50/24/16 60/25/39
f 61/67/11 62/66/11 72/77/11 71/76/11 70/75/11 69/74/11 68/73/11 67/72/11 66/71/11 65/70/11 64/69/11 63/68/11
f 83/78/65 82/79/66 70/79/11 71/78/11
f 80/80/67 79/81/68 67/81/11 68/80/11
f 77/82/69 76/62/37 64/62/11 65/82/11
f 84/83/70 83/78/65 71/78/11 72/83/11
f 73/84/71 74/85/72 62/85/11 61/84/11
f 81/86/73 80/80/67 68/80/11 69/86/11
f 78/87/74 77/82/69 65/82/11 66/87/11
f 74/88/72 84/83/70 72/83/11 62/88/11
f 75/63/38 73/84/71 61/84/11 63/63/11
f 82/79/66 81/86/73 69/86/11 70/79/11
f 79/89/68 78/87/74 66/87/11 67/89/11
f 28/90/54 26/91/53 74/85/72 73/84/71
f 26/91/53 48/90/64 84/83/70 74/88/72
f 30/92/55 28/90/54 73/84/71 75/63/38
f 32/93/56 30/92/55 75/63/38 76/62/37
f 34/94/57 32/93/56 76/62/37 77/82/69
f 36/95/58 34/94/57 77/82/69 78/87/74
f 38/96/59 36/95/58 78/87/74 79/89/68
f 40/97/60 38/96/59 79/81/68 80/80/67
f 42/98/61 40/97/60 80/80/67 81/86/73
f 44/99/62 42/98/61 81/86/73 82/79/66
f 46/92/63 44/99/62 82/79/66 83/78/65
f 48/90/64 46/92/63 83/78/65 84/83/70
usemtl glass_bot
f 25/39/41 27/40/42 29/41/43 31/42/44 33/43/45 35/44/46 37/45/47 39/46/48 41/47/49 43/48/50 45/49/51 47/50/52
f 47/36/52 96/64/40 85/65/15 25/38/41
f 45/22/51 95/61/36 96/64/40 47/36/52
f 43/20/50 94/60/34 95/61/36 45/22/51
f 41/18/49 93/59/32 94/60/34 43/20/50
f 39/16/48 92/58/30 93/59/32 41/18/49
f 37/14/47 91/57/28 92/58/30 39/16/48
f 35/12/46 90/56/26 91/57/28 37/14/47
f 33/10/45 89/55/24 90/56/26 35/12/46
f 31/8/44 88/54/22 89/55/24 33/10/45
f 29/6/43 87/53/20 88/54/22 31/8/44
f 27/4/42 86/52/18 87/53/20 29/6/43
f 25/1/41 85/51/15 86/52/18 27/4/42
