# Blender 4.3.2
# www.blender.org
mtllib knife.mtl
o knife
v 0.007949 0.000636 -0.112442
v 0.007949 -0.000636 -0.112442
v 0.007949 0.000636 -0.003828
v 0.007949 -0.000636 -0.003828
v -0.007949 0.000636 -0.074215
v -0.007949 -0.000636 -0.074215
v -0.007949 0.000636 -0.003828
v -0.007949 -0.000636 -0.003828
v 0.012727 -0.002912 -0.003302
v 0.012727 0.002912 -0.003302
v -0.012727 0.002912 -0.003302
v -0.012727 -0.002912 -0.003302
v 0.011440 -0.002618 0.108573
v 0.011440 0.002618 0.108573
v -0.011440 0.002618 0.108573
v -0.011440 -0.002618 0.108573
v 0.010223 -0.002339 0.112442
v 0.010223 0.002339 0.112442
v -0.010223 0.002339 0.112442
v -0.010223 -0.002339 0.112442
v -0.012727 -0.002912 0.003602
v 0.012727 -0.002912 0.003602
v 0.012727 0.002912 0.003602
v -0.012727 0.002912 0.003602
v -0.009218 -0.002109 0.004855
v -0.009218 0.002109 0.004855
v 0.009218 -0.002109 0.004855
v 0.009218 0.002109 0.004855
v -0.011440 -0.002618 0.100448
v -0.011440 0.002618 0.100448
v 0.011440 -0.002618 0.100448
v 0.011440 0.002618 0.100448
v 0.009218 -0.002109 0.084921
v 0.009218 0.002109 0.084921
v -0.009218 -0.002109 0.084921
v -0.009218 0.002109 0.084921
vn -0.1649 -0.5395 0.8257
vn -0.1649 0.5395 0.8257
vn -0.3310 -0.4022 0.8536
vn -0.3310 0.4022 0.8536
vn 0.7319 -0.6656 0.1461
vn 0.7319 0.6656 0.1461
vn 0.3310 -0.4022 0.8536
vn 0.3310 0.4022 0.8536
vn -0.5946 0.5872 0.5492
vn -0.5946 -0.5872 0.5492
vn 0.5946 -0.5872 0.5492
vn 0.5946 0.5872 0.5492
vn -0.7212 0.6805 -0.1300
vn -0.7212 -0.6805 -0.1300
vn 0.7212 -0.6805 -0.1300
vn 0.7212 0.6805 -0.1300
vn -0.4765 0.5698 -0.6695
vn -0.4765 -0.5698 -0.6695
vn 0.4765 -0.5698 -0.6695
vn 0.4765 0.5698 -0.6695
vn 0.6415 0.6038 -0.4732
vn -0.6415 0.6038 -0.4732
vn -0.6415 -0.6038 -0.4732
vn 0.6415 -0.6038 -0.4732
vn 0.3981 0.7114 -0.5791
vn 0.3981 -0.7114 -0.5791
vn -0.3981 0.7114 -0.5791
vn -0.3981 -0.7114 -0.5791
vn 0.7167 0.6947 0.0613
vn 0.7167 -0.6947 0.0613
vn -0.7167 0.6947 0.0613
vn -0.7167 -0.6947 0.0613
vn -0.6919 0.7193 0.0620
vn -0.6919 -0.7193 0.0620
vn 0.6919 0.7193 0.0620
vn 0.6919 -0.7193 0.0620
vt 0.929839 0.147241
vt 0.938207 0.147241
vt 0.938207 0.850514
vt 0.929839 0.850514
vt 0.531567 0.214470
vt 0.531567 0.075093
vt 0.551517 0.033203
vt 0.551517 0.256359
vt 0.921472 0.147241
vt 0.929839 0.602906
vt 0.921472 0.602906
vt 0.929839 0.853857
vt 0.921472 0.853857
vt 0.709875 0.850755
vt 0.605381 0.850755
vt 0.605381 0.394846
vt 0.709875 0.147241
vt 0.814369 0.147241
vt 0.814369 0.850755
vt 0.709875 0.603149
vt 0.431130 0.280402
vt 0.343719 0.280402
vt 0.343719 0.249813
vt 0.431130 0.249813
vt 0.520406 0.214470
vt 0.500456 0.256359
vt 0.520406 0.075093
vt 0.500456 0.033203
vt 0.454558 0.928446
vt 0.500456 0.928446
vt 0.498016 0.962145
vt 0.456999 0.962145
vt 0.454558 0.858273
vt 0.500456 0.858273
vt 0.454558 0.136413
vt 0.408660 0.136413
vt 0.408660 0.066253
vt 0.454558 0.066253
vt 0.440963 0.625848
vt 0.528374 0.625848
vt 0.528374 0.656437
vt 0.440963 0.656437
vt 0.500456 0.256359
vt 0.541473 0.256359
vt 0.541473 0.435621
vt 0.500456 0.435621
vt 0.411101 0.033203
vt 0.452118 0.033203
vt 0.523727 0.671009
vt 0.445610 0.671009
vt 0.348366 0.235241
vt 0.426483 0.235241
vt 0.436047 0.235241
vt 0.533291 0.235241
vt 0.533291 0.261232
vt 0.436047 0.261232
vt 0.551517 0.554854
vt 0.500456 0.554854
vt 0.500456 0.495243
vt 0.551517 0.495243
vt 0.500456 0.435621
vt 0.551517 0.435621
vt 0.551517 0.495243
vt 0.500456 0.495243
vt 0.436047 0.671009
vt 0.338802 0.671009
vt 0.338802 0.645018
vt 0.436047 0.645018
vt 0.519887 0.265970
vt 0.449451 0.265970
vt 0.500456 0.605915
vt 0.500456 0.554854
vt 0.531216 0.561892
vt 0.531216 0.598877
vt 0.531216 0.605915
vt 0.531216 0.656976
vt 0.500456 0.649938
vt 0.500456 0.612953
vt 0.352206 0.640280
vt 0.422643 0.640280
vt 0.449451 0.567404
vt 0.519887 0.567404
vt 0.450101 0.271137
vt 0.413117 0.271137
vt 0.459015 0.724697
vt 0.495999 0.724697
vt 0.422643 0.338846
vt 0.352206 0.338846
vt 0.221117 0.379847
vt 0.150681 0.379847
vt 0.150681 0.078413
vt 0.221117 0.078413
vt 0.459015 0.033203
vt 0.496000 0.033203
vt 0.450101 0.962499
vt 0.413117 0.962499
vt 0.149356 0.068313
vt 0.221606 0.068313
vt 0.221606 0.377511
vt 0.149356 0.377511
s 1
usemtl table_cutlery
f 1/1/1 2/2/2 4/3/4 3/4/3
f 4/5/4 8/6/8 12/7/12 9/8/9
f 7/9/7 8/1/8 6/10/6 5/11/5
f 5/11/5 6/10/6 2/12/2 1/13/1
f 3/14/3 7/15/7 5/16/5 1/17/1
f 8/17/8 4/18/4 2/19/2 6/20/6
f 31/21/31 29/22/29 16/23/16 13/24/13
f 3/25/3 4/5/4 9/8/9 10/26/10
f 8/6/8 7/27/7 11/28/11 12/7/12
f 7/27/7 3/25/3 10/26/10 11/28/11
f 14/29/14 13/30/13 17/31/17 18/32/18
f 32/33/32 31/34/31 13/30/13 14/29/14
f 29/35/29 30/36/30 15/37/15 16/38/16
f 30/39/30 32/40/32 14/41/14 15/42/15
f 18/43/18 17/44/17 20/45/20 19/46/19
f 16/38/16 15/37/15 19/47/19 20/48/20
f 15/42/15 14/41/14 18/49/18 19/50/19
f 13/24/13 16/23/16 20/51/20 17/52/17
f 11/53/11 10/54/10 23/55/23 24/56/24
f 12/57/12 11/58/11 24/59/24 21/60/21
f 10/61/10 9/62/9 22/63/22 23/64/23
f 9/65/9 12/66/12 21/67/21 22/68/22
f 24/56/24 23/55/23 28/69/28 26/70/26
f 21/71/21 24/72/24 26/73/26 25/74/25
f 23/75/23 22/76/22 27/77/27 28/78/28
f 22/68/22 21/67/21 25/79/25 27/80/27
f 36/81/36 34/82/34 32/40/32 30/39/30
f 35/83/35 36/84/36 30/36/30 29/35/29
f 34/85/34 33/86/33 31/34/31 32/33/32
f 33/87/33 35/88/35 29/22/29 31/21/31
f 27/89/27 25/90/25 35/91/35 33/92/33
f 28/93/28 27/94/27 33/86/33 34/85/34
f 25/95/25 26/96/26 36/84/36 35/83/35
f 26/97/26 28/98/28 34/99/34 36/100/36
