# Blender 4.3.2
# www.blender.org
mtllib pan.mtl
o pan
v -0.095001 0.016498 0.107596
v -0.095001 0.045164 0.107596
v -0.088628 0.016498 0.084079
v -0.088628 0.045164 0.084079
v -0.051113 0.016498 0.119488
v -0.051113 0.045164 0.119488
v -0.044740 0.016498 0.095971
v -0.044740 0.045164 0.095971
v -0.094517 0.016498 0.105810
v -0.094517 0.045164 0.105810
v -0.050629 0.016498 0.117702
v -0.050629 0.045164 0.117702
v -0.103881 0.012634 0.116937
v -0.103881 0.049028 0.116937
v -0.048163 0.049028 0.132035
v -0.048163 0.012634 0.132035
v -0.195359 0.012634 0.407882
v -0.195359 0.049028 0.407882
v -0.139641 0.049028 0.422980
v -0.139641 0.012634 0.422980
v -0.000000 -0.049028 -0.353596
v -0.000000 0.038580 -0.411271
v 0.097327 -0.049028 -0.327518
v 0.126165 0.038580 -0.377465
v 0.168576 -0.049028 -0.256269
v 0.218523 0.038580 -0.285106
v 0.194655 -0.049028 -0.158942
v 0.252329 0.038580 -0.158942
v 0.168576 -0.049028 -0.061615
v 0.218523 0.038580 -0.032777
v 0.097327 -0.049028 0.009634
v 0.126165 0.038580 0.059582
v -0.000000 -0.049028 0.035713
v 0.000000 0.038580 0.093387
v -0.097327 -0.049028 0.009634
v -0.126165 0.038580 0.059582
v -0.168576 -0.049028 -0.061615
v -0.218523 0.038580 -0.032777
v -0.194655 -0.049028 -0.158942
v -0.252329 0.038580 -0.158942
v -0.168576 -0.049028 -0.256269
v -0.218523 0.038580 -0.285106
v -0.097327 -0.049028 -0.327518
v -0.126165 0.038580 -0.377465
v -0.000000 0.020214 -0.422980
v 0.132019 0.020214 -0.387606
v 0.228664 0.020214 -0.290961
v 0.264039 0.020214 -0.158942
v 0.228664 0.020214 -0.026923
v 0.132019 0.020214 0.069722
v 0.000000 0.020214 0.105097
v -0.132019 0.020214 0.069722
v -0.228664 0.020214 -0.026923
v -0.264039 0.020214 -0.158942
v -0.228664 0.020214 -0.290961
v -0.132019 0.020214 -0.387606
v 0.132019 0.038580 -0.387606
v -0.000000 0.038580 -0.422980
v 0.228664 0.038580 -0.290961
v 0.264039 0.038580 -0.158942
v 0.228664 0.038580 -0.026923
v 0.132019 0.038580 0.069722
v 0.000000 0.038580 0.105097
v -0.132019 0.038580 0.069722
v -0.228664 0.038580 -0.026923
v -0.264039 0.038580 -0.158942
v -0.228664 0.038580 -0.290961
v -0.132019 0.038580 -0.387606
v 0.103443 -0.028328 -0.338110
v -0.000000 -0.028328 -0.365827
v 0.179168 -0.028328 -0.262385
v 0.206885 -0.028328 -0.158942
v 0.179168 -0.028328 -0.055499
v 0.103443 -0.028328 0.020226
v -0.000000 -0.028328 0.047944
v -0.103443 -0.028328 0.020226
v -0.179168 -0.028328 -0.055499
v -0.206885 -0.028328 -0.158942
v -0.179168 -0.028328 -0.262385
v -0.103443 -0.028328 -0.338110
v 0.120017 -0.014125 -0.366817
v 0.207875 -0.014125 -0.278959
v 0.240034 -0.014125 -0.158942
v 0.207875 -0.014125 -0.038925
v 0.120017 -0.014125 0.048934
v -0.000000 -0.014125 0.081092
v -0.120017 -0.014125 0.048934
v -0.207875 -0.014125 -0.038925
v -0.240034 -0.014125 -0.158942
v -0.207875 -0.014125 -0.278959
v -0.120017 -0.014125 -0.366817
v -0.000000 -0.014125 -0.398976
v 0.219652 0.020356 -0.032126
v 0.126816 0.020356 0.060710
v -0.126816 0.020356 -0.378594
v -0.000000 0.020356 -0.412574
v 0.126816 0.020356 -0.378594
v 0.219652 0.020356 -0.285758
v -0.219652 0.020356 -0.032126
v -0.253632 0.020356 -0.158942
v 0.000000 0.020356 0.094691
v 0.253632 0.020356 -0.158942
v -0.219652 0.020356 -0.285758
v -0.126816 0.020356 0.060710
v -0.032442 -0.049028 0.027020
v -0.064885 -0.049028 0.018327
v -0.088013 0.038580 0.081514
v -0.044006 0.038580 0.093305
v -0.044006 0.020214 0.093305
v -0.088013 0.020214 0.081514
v -0.084110 0.038580 0.070850
v -0.042055 0.038580 0.082119
v -0.068962 -0.028328 0.029465
v -0.034481 -0.028328 0.038704
v -0.040006 -0.014125 0.070373
v -0.080011 -0.014125 0.059653
v -0.042272 0.020356 0.083364
v -0.084544 0.020356 0.072037
v -0.095001 0.037160 0.107596
v -0.088628 0.038234 0.084079
v -0.044740 0.038234 0.095971
v -0.051113 0.037160 0.119488
v -0.050629 0.037160 0.117702
v -0.094517 0.037160 0.105810
v -0.103881 0.038866 0.116937
v -0.048163 0.038866 0.132035
v -0.195359 0.038866 0.407882
v -0.139641 0.038866 0.422980
vn -0.5390 -0.7015 -0.4663
vn -0.5390 0.7015 -0.4663
vn -0.5007 -0.7036 -0.5043
vn -0.5920 0.7299 -0.3418
vn 0.7007 -0.7015 -0.1304
vn 0.7007 0.7015 -0.1304
vn 0.6909 -0.6998 -0.1817
vn 0.6855 0.7281 0.0023
vn -0.6825 -0.7071 -0.1849
vn -0.6825 0.7071 -0.1849
vn 0.6825 -0.7071 0.1849
vn 0.6825 0.7071 0.1849
vn -0.5958 -0.6766 -0.4327
vn -0.5958 0.6766 -0.4327
vn 0.7404 0.6708 -0.0427
vn 0.7404 -0.6708 -0.0427
vn -0.7175 -0.5753 0.3927
vn -0.7175 0.5753 0.3927
vn 0.3913 0.5795 0.7149
vn 0.3913 -0.5795 0.7149
vn -0.0000 -0.9297 -0.3683
vn -0.0000 0.7475 0.6643
vn 0.1842 -0.9297 -0.3190
vn -0.3322 0.7475 0.5753
vn 0.3190 -0.9297 -0.1842
vn -0.5753 0.7475 0.3322
vn 0.3683 -0.9297 -0.0000
vn -0.6643 0.7475 -0.0000
vn 0.3190 -0.9297 0.1842
vn -0.5753 0.7475 -0.3322
vn 0.1842 -0.9297 0.3190
vn -0.3322 0.7475 -0.5753
vn -0.0000 -0.9297 0.3683
vn -0.0000 0.7475 -0.6643
vn -0.1842 -0.9297 0.3190
vn 0.3322 0.7475 -0.5753
vn -0.3190 -0.9297 0.1842
vn 0.5753 0.7475 -0.3322
vn -0.3683 -0.9297 -0.0000
vn 0.6643 0.7475 -0.0000
vn -0.3190 -0.9297 -0.1842
vn 0.5753 0.7475 0.3322
vn -0.1842 -0.9297 -0.3190
vn 0.3322 0.7475 0.5753
vn -0.0000 -0.2870 -0.9579
vn 0.4790 -0.2870 -0.8296
vn 0.8296 -0.2870 -0.4790
vn 0.9579 -0.2870 -0.0000
vn 0.8296 -0.2870 0.4790
vn 0.4790 -0.2870 0.8296
vn -0.0000 -0.2870 0.9579
vn -0.4790 -0.2870 0.8296
vn -0.8296 -0.2870 0.4790
vn -0.9579 -0.2870 -0.0000
vn -0.8296 -0.2870 -0.4790
vn -0.4790 -0.2870 -0.8296
vn 0.3786 0.6532 -0.6557
vn -0.0000 0.6532 -0.7572
vn 0.6557 0.6532 -0.3786
vn 0.7572 0.6532 -0.0000
vn 0.6557 0.6532 0.3786
vn 0.3786 0.6532 0.6557
vn -0.0000 0.6532 0.7572
vn -0.3786 0.6532 0.6557
vn -0.6557 0.6532 0.3786
vn -0.7572 0.6532 -0.0000
vn -0.6557 0.6532 -0.3786
vn -0.3786 0.6532 -0.6557
vn -0.2222 0.8958 0.3849
vn -0.0000 0.8958 0.4444
vn -0.3849 0.8958 0.2222
vn -0.4444 0.8958 -0.0000
vn -0.3849 0.8958 -0.2222
vn -0.2222 0.8958 -0.3849
vn -0.0000 0.8958 -0.4444
vn 0.2222 0.8958 -0.3849
vn 0.3849 0.8958 -0.2222
vn 0.4444 0.8958 -0.0000
vn 0.3849 0.8958 0.2222
vn 0.2222 0.8958 0.3849
vn 0.3673 -0.6785 -0.6362
vn 0.6362 -0.6785 -0.3673
vn 0.7346 -0.6785 -0.0000
vn 0.6362 -0.6785 0.3673
vn 0.3673 -0.6785 0.6362
vn -0.0000 -0.6785 0.7346
vn -0.3673 -0.6785 0.6362
vn -0.6362 -0.6785 0.3673
vn -0.7346 -0.6785 -0.0000
vn -0.6362 -0.6785 -0.3673
vn -0.3673 -0.6785 -0.6362
vn -0.0000 -0.6785 -0.7346
vn -0.8204 0.3203 -0.4737
vn -0.4737 0.3203 -0.8204
vn 0.4737 0.3203 0.8204
vn -0.0000 0.3203 0.9473
vn -0.4737 0.3203 0.8204
vn -0.8204 0.3203 0.4737
vn 0.8204 0.3203 -0.4737
vn 0.9473 0.3203 -0.0000
vn -0.0000 0.3203 -0.9473
vn -0.9473 0.3203 -0.0000
vn 0.8204 0.3203 0.4737
vn 0.4737 0.3203 -0.8204
vn -0.0854 -0.9440 0.3187
vn -0.8141 0.5762 0.0723
vn 0.6732 0.5760 0.4638
vn 0.3543 -0.5713 0.7404
vn -0.6778 -0.5647 0.4709
vn 0.1207 0.5792 -0.8062
vn 0.2982 0.5790 -0.7588
vn 0.1035 0.9165 -0.3864
vn -0.1901 -0.6788 0.7093
vn 0.2441 0.3329 -0.9108
vn -0.8716 -0.0000 -0.4902
vn -0.9400 0.2527 -0.2290
vn 0.9308 0.2481 0.2685
vn 0.9999 -0.0000 0.0169
vn 0.9652 -0.0000 0.2615
vn -0.9652 -0.0000 -0.2615
vn -0.8616 -0.0000 -0.5076
vn 0.9993 -0.0000 0.0369
vn -0.8772 -0.0000 0.4801
vn 0.4801 -0.0000 0.8772
vt 0.948314 0.034164
vt 0.940810 0.034162
vt 0.940801 0.013104
vt 0.947298 0.013106
vt 0.990122 0.470012
vt 0.990106 0.459371
vt 0.996296 0.472592
vt 0.989800 0.472599
vt 0.988802 0.493667
vt 0.996306 0.493658
vt 0.996307 0.495390
vt 0.988803 0.495399
vt 0.948315 0.035895
vt 0.967685 0.035901
vt 0.971248 0.046903
vt 0.946656 0.046895
vt 0.917041 0.482126
vt 0.959637 0.480417
vt 0.959707 0.482147
vt 0.917111 0.483856
vt 0.289992 0.778412
vt 0.247396 0.776706
vt 0.247465 0.774973
vt 0.290061 0.776679
vt 0.289147 0.799493
vt 0.246551 0.797787
vt 0.916197 0.461080
vt 0.958793 0.459371
vt 0.940811 0.035892
vt 0.296232 0.766180
vt 0.242154 0.764014
vt 0.242154 0.478218
vt 0.296232 0.480384
vt 0.965882 0.492751
vt 0.911804 0.494921
vt 1.000000 0.506355
vt 0.990474 0.506366
vt 0.266740 0.812824
vt 0.276264 0.812823
vt 0.276264 0.866944
vt 0.266740 0.866945
vt 1.000000 0.790784
vt 0.990474 0.790795
vt 0.965882 0.778082
vt 0.911804 0.780251
vt 0.971248 0.332718
vt 0.946656 0.332711
vt 0.206301 0.717327
vt 0.189101 0.717327
vt 0.189101 0.589189
vt 0.206301 0.589189
vt 0.192060 0.478218
vt 0.209260 0.478218
vt 0.379957 0.478230
vt 0.397174 0.478218
vt 0.397910 0.592823
vt 0.380693 0.592834
vt 0.397910 0.720731
vt 0.380693 0.720743
vt 0.397174 0.827671
vt 0.379957 0.827683
vt 0.315011 0.828298
vt 0.297797 0.828298
vt 0.296232 0.717370
vt 0.313445 0.717370
vt 0.313445 0.631945
vt 0.296232 0.631944
vt 0.296232 0.589232
vt 0.313445 0.589232
vt 0.297797 0.478218
vt 0.315011 0.478218
vt 0.415842 0.827412
vt 0.398625 0.827398
vt 0.397910 0.721304
vt 0.415128 0.721317
vt 0.397910 0.593495
vt 0.415128 0.593509
vt 0.880694 0.397950
vt 0.762113 0.470597
vt 0.751659 0.423212
vt 0.845706 0.364490
vt 0.398625 0.478218
vt 0.415842 0.478232
vt 0.209260 0.828298
vt 0.192060 0.828298
vt 0.521121 0.723983
vt 0.521121 0.629517
vt 0.568254 0.547707
vt 0.649891 0.500473
vt 0.744156 0.500472
vt 0.825793 0.547704
vt 0.872926 0.629513
vt 0.872926 0.661002
vt 0.872926 0.692491
vt 0.872926 0.723979
vt 0.825793 0.805790
vt 0.744156 0.853024
vt 0.649890 0.853025
vt 0.568254 0.805793
vt 0.242154 0.812385
vt 0.239464 0.711502
vt 0.447561 0.597786
vt 0.448211 0.492990
vt 0.447561 0.713976
vt 0.448211 0.810425
vt 0.346160 0.595043
vt 0.347583 0.494122
vt 0.346160 0.633872
vt 0.347583 0.812375
vt 0.346160 0.711531
vt 0.348252 0.713651
vt 0.347583 0.810869
vt 0.348252 0.597371
vt 0.347583 0.493185
vt 0.239464 0.595014
vt 0.242154 0.494132
vt 0.010599 0.177881
vt 0.010599 0.300337
vt 0.000000 0.303178
vt 0.000000 0.175040
vt 0.071797 0.406386
vt 0.064038 0.414149
vt 0.177794 0.467614
vt 0.174955 0.478218
vt 0.300190 0.467614
vt 0.303030 0.478218
vt 0.406188 0.406387
vt 0.413946 0.414149
vt 0.467385 0.300337
vt 0.477984 0.303179
vt 0.467385 0.218700
vt 0.467385 0.177882
vt 0.477984 0.175040
vt 0.477984 0.217753
vt 0.406188 0.071832
vt 0.413946 0.064069
vt 0.300190 0.010604
vt 0.303030 0.000000
vt 0.177794 0.010604
vt 0.174954 -0.000000
vt 0.071796 0.071831
vt 0.064038 0.064069
vt 0.494827 0.269079
vt 0.494034 0.163119
vt 0.549663 0.068303
vt 0.656938 0.018966
vt 0.765114 0.022445
vt 0.845706 0.068303
vt 0.899885 0.162191
vt 0.899885 0.198328
vt 0.899885 0.234465
vt 0.899885 0.270603
vt 0.643449 0.421247
vt 0.549664 0.364490
vt 0.448884 0.151483
vt 0.517759 0.034837
vt 0.517759 0.397949
vt 0.449855 0.281386
vt 0.774962 -0.025546
vt 0.880694 0.034837
vt 0.947115 0.282848
vt 0.629452 0.468188
vt 0.645674 -0.028701
vt 0.947115 0.238545
vt 0.947115 0.149939
vt 0.477984 0.734989
vt 0.477984 0.618501
vt 0.536105 0.517618
vt 0.636774 0.459372
vt 0.753015 0.459371
vt 0.853684 0.517614
vt 0.911804 0.618496
vt 0.911804 0.696155
vt 0.911804 0.734984
vt 0.853683 0.835867
vt 0.753015 0.894113
vt 0.636773 0.894114
vt 0.536105 0.835871
vt 0.448211 0.813637
vt 0.451039 0.707587
vt 0.468160 0.707904
vt 0.465317 0.814501
vt 0.001496 0.707547
vt 0.001496 0.585091
vt 0.018605 0.584775
vt 0.018605 0.707863
vt 0.126153 0.479121
vt 0.125450 0.581318
vt 0.108353 0.580944
vt 0.109060 0.478218
vt 0.126836 0.702659
vt 0.126836 0.580518
vt 0.143933 0.580132
vt 0.143933 0.702903
vt 0.451039 0.625950
vt 0.451039 0.585132
vt 0.468160 0.584816
vt 0.468160 0.625845
vt 0.125450 0.703555
vt 0.108353 0.703811
vt 0.126153 0.479128
vt 0.143247 0.478218
vt 0.448211 0.479082
vt 0.465317 0.478218
vt 0.126153 0.813076
vt 0.109060 0.813899
vt 0.000000 0.813637
vt 0.017101 0.814501
vt 0.000000 0.479083
vt 0.017101 0.478218
vt 0.126153 0.812823
vt 0.143247 0.813636
vt 0.451039 0.666769
vt 0.468160 0.666874
vt 0.911804 0.657325
vt 0.947115 0.194242
vt 0.467385 0.259519
vt 0.477984 0.260466
vt 0.946978 -0.000000
vt 0.946972 0.010644
vt 0.313445 0.674657
vt 0.346160 0.672702
vt 0.296232 0.674657
vt 0.972905 0.470033
vt 0.969422 0.472624
vt 0.937130 0.046892
vt 0.937130 0.332707
vt 0.965882 0.506395
vt 0.965882 0.790824
vt 0.242154 0.812825
vt 0.242154 0.866946
vt 0.969433 0.495422
vt 0.967685 0.034170
vt 0.969432 0.493690
vt 0.471759 0.478218
vt 0.471759 0.520931
vt 0.468160 0.520913
vt 0.468165 0.478283
vt 0.967675 0.013112
vt 0.471759 0.478218
vt 0.474220 0.478283
vt 0.474340 0.520913
vt 0.964190 0.010650
vt 0.287646 0.812824
vt 0.246865 0.811075
s 1
usemtl pan
f 124/1/120 10/2/10 4/3/4 120/4/116
f 108/5/107 112/6/111 8/7/8 121/8/117
f 123/9/119 12/10/12 6/11/6 122/12/118
f 119/13/115 1/14/1 13/15/13 125/16/121
f 9/17/9 11/18/11 5/19/5 1/20/1
f 12/21/12 10/22/10 2/23/2 6/24/6
f 8/25/8 4/26/4 10/22/10 12/21/12
f 3/27/3 7/28/7 11/18/11 9/17/9
f 121/8/117 8/7/8 12/10/12 123/9/119
f 119/13/115 2/29/2 10/2/10 124/1/120
f 15/30/15 14/31/14 18/32/18 19/33/19
f 1/20/1 5/19/5 16/34/16 13/35/13
f 6/24/6 2/23/2 14/31/14 15/30/15
f 122/12/118 6/11/6 15/36/15 126/37/122
f 128/38/124 19/39/19 18/40/18 127/41/123
f 126/37/122 15/36/15 19/42/19 128/43/124
f 13/35/13 16/34/16 20/44/20 17/45/17
f 125/16/121 13/15/13 17/46/17 127/47/123
f 45/48/45 58/49/58 57/50/57 46/51/46
f 46/51/46 57/50/57 59/52/59 47/53/47
f 47/54/47 59/55/59 60/56/60 48/57/48
f 48/57/48 60/56/60 61/58/61 49/59/49
f 49/59/49 61/58/61 62/60/62 50/61/50
f 50/62/50 62/63/62 63/64/63 51/65/51
f 110/66/109 107/67/106 64/68/64 52/69/52
f 52/69/52 64/68/64 65/70/65 53/71/53
f 53/72/53 65/73/65 66/74/66 54/75/54
f 54/75/54 66/74/66 67/76/67 55/77/55
f 94/78/94 93/79/93 73/80/73 74/81/74
f 55/77/55 67/76/67 68/82/68 56/83/56
f 56/84/56 68/85/68 58/49/58 45/48/45
f 21/86/21 23/87/23 25/88/25 27/89/27 29/90/29 31/91/31 33/92/33 105/93/105 106/94/105 35/95/35 37/96/37 39/97/39 41/98/41 43/99/43
f 91/100/91 56/84/56 45/48/45 92/101/92
f 90/102/90 55/77/55 56/83/56 91/103/91
f 89/104/89 54/75/54 55/77/55 90/102/90
f 88/105/88 53/72/53 54/75/54 89/104/89
f 87/106/87 52/69/52 53/71/53 88/107/88
f 116/108/113 110/66/109 52/69/52 87/106/87
f 85/109/85 50/62/50 51/65/51 86/110/86
f 84/111/84 49/59/49 50/61/50 85/112/85
f 83/113/83 48/57/48 49/59/49 84/111/84
f 82/114/82 47/54/47 48/57/48 83/113/83
f 81/115/81 46/51/46 47/53/47 82/116/82
f 92/101/92 45/48/45 46/51/46 81/115/81
f 22/117/22 24/118/24 57/119/57 58/120/58
f 24/118/24 26/121/26 59/122/59 57/119/57
f 26/121/26 28/123/28 60/124/60 59/122/59
f 28/123/28 30/125/30 61/126/61 60/124/60
f 30/125/30 32/127/32 62/128/62 61/126/61
f 32/127/32 34/129/34 63/130/63 62/128/62
f 111/131/110 36/132/36 64/133/64 107/134/106
f 36/132/36 38/135/38 65/136/65 64/133/64
f 38/135/38 40/137/40 66/138/66 65/136/65
f 40/137/40 42/139/42 67/140/67 66/138/66
f 42/139/42 44/141/44 68/142/68 67/140/67
f 44/141/44 22/117/22 58/120/58 68/142/68
f 69/143/69 70/144/70 80/145/80 79/146/79 78/147/78 77/148/77 76/149/76 113/150/112 114/151/112 75/152/75 74/81/74 73/80/73 72/153/72 71/154/71
f 96/155/96 95/156/95 80/145/80 70/144/70
f 98/157/98 97/158/97 69/143/69 71/154/71
f 100/159/100 99/160/99 77/148/77 78/147/78
f 101/161/101 94/78/94 74/81/74 75/152/75
f 102/162/102 98/157/98 71/154/71 72/153/72
f 103/163/103 100/159/100 78/147/78 79/146/79
f 117/164/114 101/161/101 75/152/75 114/151/112
f 93/79/93 102/162/102 72/153/72 73/80/73
f 95/156/95 103/163/103 79/146/79 80/145/80
f 97/158/97 96/155/96 70/144/70 69/143/69
f 99/160/99 104/165/104 76/149/76 77/148/77
f 21/86/21 92/166/92 81/167/81 23/87/23
f 23/87/23 81/167/81 82/168/82 25/88/25
f 25/88/25 82/168/82 83/169/83 27/89/27
f 27/89/27 83/169/83 84/170/84 29/90/29
f 29/90/29 84/170/84 85/171/85 31/91/31
f 31/91/31 85/171/85 86/172/86 33/92/33
f 106/94/105 116/173/113 87/174/87 35/95/35
f 35/95/35 87/174/87 88/175/88 37/96/37
f 37/96/37 88/175/88 89/176/89 39/97/39
f 39/97/39 89/176/89 90/177/90 41/98/41
f 41/98/41 90/177/90 91/178/91 43/99/43
f 43/99/43 91/178/91 92/166/92 21/86/21
f 38/179/38 36/180/36 104/181/104 99/182/99
f 24/183/24 22/184/22 96/185/96 97/186/97
f 44/187/44 42/188/42 103/189/103 95/190/95
f 30/191/30 28/192/28 102/193/102 93/194/93
f 112/195/111 34/196/34 101/197/101 117/198/114
f 42/188/42 40/199/40 100/200/100 103/189/103
f 28/192/28 26/201/26 98/202/98 102/193/102
f 34/196/34 32/203/32 94/204/94 101/197/101
f 40/199/40 38/205/38 99/206/99 100/200/100
f 26/207/26 24/183/24 97/186/97 98/208/98
f 22/184/22 44/209/44 95/210/95 96/185/96
f 32/211/32 30/191/30 93/194/93 94/212/94
f 36/180/36 111/213/110 118/214/114 104/181/104
f 111/213/110 112/195/111 117/198/114 118/214/114
f 33/92/33 86/172/86 115/215/113 105/93/105
f 105/93/105 115/215/113 116/173/113 106/94/105
f 104/165/104 118/216/114 113/150/112 76/149/76
f 118/216/114 117/164/114 114/151/112 113/150/112
f 34/129/34 112/217/111 108/218/107 63/130/63
f 111/219/110 107/220/106 120/4/116 4/3/4
f 86/110/86 51/65/51 109/221/108 115/222/113
f 115/222/113 109/221/108 110/66/109 116/108/113
f 51/65/51 63/64/63 108/223/107 109/221/108
f 109/224/108 108/5/107 121/8/117 7/225/7
f 14/226/14 125/16/121 127/47/123 18/227/18
f 16/228/16 126/37/122 128/43/124 20/229/20
f 20/230/20 128/38/124 127/41/123 17/231/17
f 5/232/5 122/12/118 126/37/122 16/228/16
f 1/14/1 119/13/115 124/1/120 9/233/9
f 7/225/7 121/8/117 123/9/119 11/234/11
f 2/29/2 119/13/115 125/16/121 14/226/14
f 11/234/11 123/9/119 122/12/118 5/232/5
f 110/235/109 109/236/108 7/237/7 3/238/3
f 9/233/9 124/1/120 120/4/116 3/239/3
f 108/236/107 107/240/106 120/241/116 121/242/117
f 107/220/106 110/243/109 3/239/3 120/4/116
f 112/244/111 111/245/110 4/26/4 8/25/8
