# Blender 4.3.2
# www.blender.org
mtllib pizza_one_slice_gone.mtl
o pizza_one_slice_gone
v -0.263776 -0.188114 0.470639
v -0.263776 -0.159938 0.470639
v -0.263776 -0.188114 -0.056912
v -0.263776 -0.159938 -0.056912
v 0.263776 -0.188114 0.470639
v 0.263776 -0.159938 0.470639
v 0.263776 -0.188114 -0.056912
v 0.263776 -0.159938 -0.056912
v -0.263776 0.167385 -0.470639
v -0.263776 -0.159938 -0.056912
v 0.263776 0.167385 -0.470639
v 0.263776 -0.159938 -0.056912
v -0.263776 0.167385 -0.470639
v -0.263776 -0.159938 -0.056912
v 0.263776 0.167385 -0.470639
v 0.263776 -0.159938 -0.056912
v -0.263776 0.188114 -0.455092
v -0.263776 -0.139209 -0.041365
v 0.263776 0.188114 -0.455092
v 0.263776 -0.139209 -0.041365
v -0.259207 -0.185128 0.466071
v -0.258180 -0.159938 0.465044
v -0.259207 -0.185128 -0.052343
v -0.258180 -0.159938 -0.051317
v 0.259207 -0.185128 0.466071
v 0.258180 -0.159938 0.465044
v 0.259207 -0.185128 -0.052343
v 0.258180 -0.159938 -0.051317
v -0.263776 0.167010 -0.467009
v -0.263776 -0.160227 -0.051131
v 0.263776 0.167010 -0.467009
v 0.263776 -0.160227 -0.051131
v -0.258650 0.167096 -0.467988
v -0.263236 -0.160360 -0.056912
v 0.258650 0.167096 -0.467988
v 0.263236 -0.160360 -0.056912
v -0.263236 0.188098 -0.447204
v -0.255863 -0.139209 -0.041365
v 0.263236 0.188098 -0.447204
v 0.255863 -0.139209 -0.041365
v 0.006317 -0.185128 -0.028001
v 0.006317 -0.167762 -0.028001
v 0.126387 -0.185128 0.004171
v 0.126387 -0.167762 0.004171
v 0.214285 -0.185128 0.092069
v 0.214285 -0.167762 0.092069
v 0.246458 -0.185128 0.212140
v 0.246458 -0.167762 0.212140
v 0.214285 -0.185128 0.332210
v 0.214285 -0.167762 0.332210
v 0.126387 -0.185128 0.420108
v 0.126387 -0.167762 0.420108
v 0.006317 -0.185128 0.452281
v 0.006317 -0.167762 0.452281
v -0.113754 -0.185128 0.420108
v -0.113754 -0.167762 0.420108
v -0.233825 -0.185128 0.212140
v -0.233825 -0.167762 0.212140
v -0.201652 -0.185128 0.092069
v -0.201652 -0.167762 0.092069
v -0.113754 -0.185128 0.004171
v -0.113754 -0.167762 0.004171
v 0.006317 -0.176445 -0.031842
v 0.128307 -0.176445 0.000846
v 0.217611 -0.176445 0.090149
v 0.250298 -0.176445 0.212140
v 0.217611 -0.176445 0.334131
v 0.128307 -0.176445 0.423434
v 0.006317 -0.176445 0.456121
v -0.115674 -0.176445 0.423434
v -0.237665 -0.176445 0.212140
v -0.204978 -0.176445 0.090149
v -0.115674 -0.176445 0.000846
v -0.221030 -0.176445 0.274224
v -0.217447 -0.167762 0.273264
v 0.004599 -0.167762 0.213787
v -0.142599 -0.167762 0.391263
v -0.144978 -0.176445 0.394130
v -0.217178 -0.185128 0.274265
v -0.143011 -0.185128 0.390851
v 0.004465 -0.185128 0.214384
vn -1.0000 -0.0000 -0.0000
vn -0.0000 -0.0000 -1.0000
vn 1.0000 -0.0000 -0.0000
vn -0.0000 -0.0000 1.0000
vn -0.0000 -1.0000 -0.0000
vn -0.0000 -0.7842 -0.6205
vn -0.0000 1.0000 -0.0000
vn -0.0000 0.6000 -0.8000
vn 0.9992 -0.0407 -0.0000
vn -0.0000 -0.0407 0.9992
vn -0.9992 -0.0407 -0.0000
vn -0.0000 -0.0407 -0.9992
vn -0.0000 0.7859 0.6184
vn -0.0000 0.9961 0.0880
vn 0.6000 -0.6256 -0.4986
vn -0.6000 -0.6256 -0.4986
vn -0.0000 -0.7034 0.7108
vn -0.9987 -0.0373 -0.0333
vn 0.9987 -0.0373 -0.0333
vn -0.0000 -0.9988 -0.0499
vn -0.6150 0.7875 0.0393
vn 0.6150 0.7875 0.0393
vn -0.5042 0.6725 0.5417
vn 0.5042 0.6725 0.5417
vn -0.0000 1.0000 0.0021
vn 0.0296 -0.5925 0.8050
vn -0.0296 -0.5925 0.8050
vn 0.2380 0.3929 -0.8883
vn 0.6502 0.3929 -0.6502
vn 0.8883 0.3929 -0.2380
vn 0.8883 0.3929 0.2380
vn 0.6502 0.3929 0.6502
vn 0.2380 0.3929 0.8883
vn -0.2380 0.3929 0.8883
vn -0.6502 0.3929 0.6502
vn -0.8883 0.3929 -0.2380
vn -0.6502 0.3929 -0.6502
vn -0.2380 0.3929 -0.8883
vn -0.2380 -0.3929 -0.8883
vn -0.6502 -0.3929 -0.6502
vn -0.8883 -0.3929 -0.2380
vn -0.6502 -0.3929 0.6502
vn -0.2380 -0.3929 0.8883
vn 0.2380 -0.3929 0.8883
vn 0.6502 -0.3929 0.6502
vn 0.8883 -0.3929 0.2380
vn 0.8883 -0.3929 -0.2380
vn 0.6502 -0.3929 -0.6502
vn 0.2380 -0.3929 -0.8883
vn -0.8883 0.3929 0.2380
vn -0.7689 0.0088 -0.6393
vn 0.2584 0.0455 0.9650
vn -0.8883 -0.3929 0.2380
vt 0.745437 0.657758
vt 0.728880 0.657755
vt 0.728880 0.347707
vt 0.745437 0.347709
vt 0.789135 0.657766
vt 0.775887 0.657766
vt 0.775887 0.347707
vt 0.789135 0.347707
vt 0.922581 0.347541
vt 0.939138 0.347539
vt 0.939138 0.657587
vt 0.922581 0.657590
vt 0.982018 0.657598
vt 0.969173 0.657598
vt 0.969173 0.347539
vt 0.982018 0.347539
vt 0.347694 0.993763
vt 0.347694 0.675102
vt 0.661570 0.675102
vt 0.661570 0.993763
vt 0.334170 0.334171
vt 0.000000 0.334171
vt 0.000000 0.000000
vt 0.334170 0.000000
vt 0.280698 0.337156
vt 0.775886 0.347707
vt 0.775886 0.657766
vt 0.760657 0.657766
vt 0.760657 0.347707
vt 0.745437 0.658152
vt 0.745437 0.348098
vt 0.760657 0.347707
vt 0.760657 0.657761
vt 0.954359 0.347930
vt 0.954359 0.657984
vt 0.939138 0.657593
vt 0.939138 0.347539
vt 0.866087 0.653553
vt 0.866087 0.348875
vt 0.880901 0.349481
vt 0.880901 0.652952
vt 0.967662 0.340096
vt 0.967662 0.644785
vt 0.955797 0.644181
vt 0.955797 0.340699
vt 0.969173 0.347539
vt 0.969173 0.652217
vt 0.954359 0.651616
vt 0.954359 0.348145
vt 0.038726 0.665527
vt 0.038726 0.993909
vt 0.026351 0.993259
vt 0.026351 0.666177
vt 0.008728 0.671235
vt 0.343656 0.671235
vt 0.343656 0.999617
vt 0.008728 0.999617
vt 0.339596 0.326292
vt 0.339596 0.000641
vt 0.673767 0.000641
vt 0.673767 0.326292
vt 0.334171 0.000518
vt 0.337418 0.000000
vt 0.665094 0.000000
vt 0.668341 0.000518
vt 0.982312 0.659054
vt 0.982018 0.656436
vt 0.982018 0.347539
vt 0.985026 0.348047
vt 0.985026 0.348047
vt 0.988035 0.347539
vt 0.988035 0.656435
vt 0.987740 0.659054
vt 0.831673 0.655604
vt 0.814389 0.658299
vt 0.814389 0.348875
vt 0.831673 0.351570
vt 0.848880 0.657772
vt 0.833378 0.657148
vt 0.831673 0.350753
vt 0.848880 0.348875
vt 0.848880 0.348875
vt 0.866087 0.350753
vt 0.864382 0.657148
vt 0.848880 0.657772
vt 0.680303 0.347539
vt 0.922581 0.347539
vt 0.920011 0.350827
vt 0.682873 0.350827
vt 0.680303 0.657598
vt 0.682873 0.654309
vt 0.922581 0.657598
vt 0.920011 0.654309
vt 0.334170 0.337156
vt 0.000000 0.337156
vt 0.333754 0.337156
vt 0.334096 0.337322
vt 0.333754 0.340131
vt 0.334096 0.340131
vt 0.334096 0.343107
vt 0.333754 0.340298
vt 0.960033 0.416441
vt 0.747083 0.404618
vt 0.747083 0.409630
vt 0.963662 0.416758
vt 0.700892 0.633457
vt 0.913842 0.621168
vt 0.917471 0.620851
vt 0.700892 0.628444
vt 0.881288 0.657598
vt 0.881288 0.347539
vt 0.884917 0.347856
vt 0.884917 0.657280
vt 0.251412 0.687613
vt 0.246972 0.671825
vt 0.251797 0.670468
vt 0.251797 0.687719
vt 0.256623 0.671825
vt 0.252183 0.687613
vt 0.251797 0.687719
vt 0.251797 0.670468
vt 0.989005 0.750000
vt 0.989005 0.762411
vt 0.907504 0.762411
vt 0.907504 0.750000
vt 0.826003 0.762411
vt 0.826003 0.750000
vt 0.744502 0.762411
vt 0.744502 0.750000
vt 0.663002 0.762411
vt 0.663002 0.750000
vt 0.581501 0.762411
vt 0.581501 0.750000
vt 0.500000 0.762411
vt 0.500000 0.750000
vt 0.418499 0.762411
vt 0.418499 0.750000
vt 0.391753 0.762411
vt 0.391756 0.750000
vt 0.255498 0.750000
vt 0.255498 0.762411
vt 0.173997 0.762411
vt 0.173997 0.750000
vt 0.370000 0.457846
vt 0.250000 0.490000
vt 0.130000 0.457846
vt 0.042154 0.370000
vt 0.010000 0.250000
vt 0.026368 0.188912
vt 0.248283 0.248353
vt 0.101171 0.070982
vt 0.130000 0.042154
vt 0.250000 0.010000
vt 0.370000 0.042154
vt 0.457846 0.130000
vt 0.490000 0.250000
vt 0.457846 0.370000
vt 0.092496 0.762411
vt 0.092496 0.750000
vt 0.010995 0.762411
vt 0.010995 0.750000
vt 0.750000 0.490000
vt 0.870000 0.457846
vt 0.957846 0.370000
vt 0.990000 0.250000
vt 0.957846 0.130000
vt 0.870000 0.042154
vt 0.750000 0.010000
vt 0.630000 0.042154
vt 0.600760 0.071393
vt 0.748150 0.247757
vt 0.526637 0.187911
vt 0.510000 0.250000
vt 0.542154 0.370000
vt 0.630000 0.457846
vt 0.092496 0.737589
vt 0.010995 0.737589
vt 0.173997 0.737589
vt 0.255498 0.737589
vt 0.418499 0.737589
vt 0.391372 0.737589
vt 0.500000 0.737589
vt 0.581501 0.737589
vt 0.663002 0.737589
vt 0.744502 0.737589
vt 0.826003 0.737589
vt 0.907504 0.737589
vt 0.989005 0.737589
vt 0.296975 0.750000
vt 0.296987 0.762411
vt 0.016275 0.964126
vt 0.016260 0.523294
vt 0.032913 0.516050
vt 0.049557 0.523192
vt 0.049557 0.965168
vt 0.082900 0.516050
vt 0.082900 0.956681
vt 0.066274 0.963792
vt 0.049557 0.956681
vt 0.049600 0.516593
vt 0.297667 0.737589
s 0
usemtl pizza_box
f 1/1/1 2/2/1 4/3/1 3/4/1
f 3/5/2 4/6/2 8/7/2 7/8/2
f 7/9/3 8/10/3 6/11/3 5/12/3
f 5/13/4 6/14/4 2/15/4 1/16/4
f 3/17/5 7/18/5 5/19/5 1/20/5
f 12/21/6 10/22/6 9/23/6 11/24/6
f 11/25/7 9/25/7 13/25/7 15/25/7
f 12/25/7 11/25/7 15/25/7 16/25/7
f 9/25/7 10/25/7 14/25/7 13/25/7
f 15/26/8 13/27/8 17/28/8 19/29/8
f 16/30/3 15/31/3 19/32/3 20/33/3
f 13/34/1 14/35/1 18/36/1 17/37/1
f 21/38/9 23/39/9 24/40/9 22/41/9
f 23/42/10 27/43/10 28/44/10 24/45/10
f 27/46/11 25/47/11 26/48/11 28/49/11
f 25/50/12 21/51/12 22/52/12 26/53/12
f 23/54/7 21/55/7 25/56/7 27/57/7
f 32/58/13 31/59/13 29/60/13 30/61/13
f 31/62/14 35/63/14 33/64/14 29/65/14
f 32/66/15 36/67/15 35/68/15 31/69/15
f 29/70/16 33/71/16 34/72/16 30/73/16
f 35/74/17 39/75/17 37/76/17 33/77/17
f 36/78/18 40/79/18 39/80/18 35/81/18
f 33/82/19 37/83/19 38/84/19 34/85/19
f 4/86/7 2/87/7 22/88/7 24/89/7
f 8/90/7 4/86/7 24/89/7 28/91/7
f 6/92/7 8/90/7 28/91/7 26/93/7
f 2/87/7 6/92/7 26/93/7 22/88/7
f 10/22/20 12/21/20 32/94/20 30/95/20
f 12/96/21 16/96/21 36/97/21 32/98/21
f 14/99/22 10/99/22 30/100/22 34/101/22
f 17/102/23 18/103/23 38/104/23 37/105/23
f 20/106/24 19/107/24 39/108/24 40/109/24
f 19/110/25 17/111/25 37/112/25 39/113/25
f 16/114/26 20/115/26 40/116/26 36/117/26
f 18/118/27 14/119/27 34/120/27 38/121/27
usemtl pizza
f 63/122/28 42/123/28 44/124/28 64/125/28
f 64/125/29 44/124/29 46/126/29 65/127/29
f 65/127/30 46/126/30 48/128/30 66/129/30
f 66/129/31 48/128/31 50/130/31 67/131/31
f 67/131/32 50/130/32 52/132/32 68/133/32
f 68/133/33 52/132/33 54/134/33 69/135/33
f 69/135/34 54/134/34 56/136/34 70/137/34
f 70/137/35 56/136/35 77/138/35 78/139/35
f 71/140/36 58/141/36 60/142/36 72/143/36
f 44/144/7 42/145/7 62/146/7 60/147/7 58/148/7 75/149/7 76/150/7 77/151/7 56/152/7 54/153/7 52/154/7 50/155/7 48/156/7 46/157/7
f 72/143/37 60/142/37 62/158/37 73/159/37
f 73/159/38 62/158/38 42/160/38 63/161/38
f 41/162/5 43/163/5 45/164/5 47/165/5 49/166/5 51/167/5 53/168/5 55/169/5 80/170/5 81/171/5 79/172/5 57/173/5 59/174/5 61/175/5
f 61/176/39 73/159/39 63/161/39 41/177/39
f 59/178/40 72/143/40 73/159/40 61/176/40
f 57/179/41 71/140/41 72/143/41 59/178/41
f 55/180/42 70/137/42 78/139/42 80/181/42
f 53/182/43 69/135/43 70/137/43 55/180/43
f 51/183/44 68/133/44 69/135/44 53/182/44
f 49/184/45 67/131/45 68/133/45 51/183/45
f 47/185/46 66/129/46 67/131/46 49/184/46
f 45/186/47 65/127/47 66/129/47 47/185/47
f 43/187/48 64/125/48 65/127/48 45/186/48
f 41/188/49 63/122/49 64/125/49 43/187/49
f 74/189/50 75/190/50 58/141/50 71/140/50
f 81/191/51 80/192/51 78/193/51 77/194/51 76/195/51
f 76/196/52 75/197/52 74/198/52 79/199/52 81/200/52
f 79/201/53 74/189/53 71/140/53 57/179/53
