# Blender 4.3.2
# www.blender.org
mtllib pizza_box_semi_close_empty.mtl
o pizza_box_semi_close_empty
v 0.263776 -0.159913 0.263776
v 0.263776 -0.131737 0.263776
v -0.263776 -0.159913 0.263776
v -0.263776 -0.131737 0.263776
v 0.263776 -0.159913 -0.263776
v 0.263776 -0.131737 -0.263776
v -0.263776 -0.159913 -0.263776
v -0.263776 -0.131737 -0.263776
v 0.182830 0.159913 0.263776
v -0.260242 -0.126439 0.263776
v 0.182830 0.159913 -0.263776
v -0.260242 -0.126439 -0.263776
v 0.182830 0.159913 0.264304
v -0.260242 -0.126439 0.264304
v 0.182830 0.159913 -0.264304
v -0.260242 -0.126439 -0.264304
v 0.197452 0.138521 0.264304
v -0.245620 -0.147831 0.264304
v 0.197452 0.138521 -0.264304
v -0.245620 -0.147831 -0.264304
v 0.259207 -0.156927 0.259207
v 0.258180 -0.131737 0.258180
v -0.259207 -0.156927 0.259207
v -0.258180 -0.131737 0.258180
v 0.259207 -0.156927 -0.259207
v 0.258180 -0.131737 -0.258180
v -0.259207 -0.156927 -0.259207
v -0.258180 -0.131737 -0.258180
v 0.181306 0.156597 0.263776
v -0.262376 -0.131819 0.263776
v 0.181306 0.156597 -0.263776
v -0.262376 -0.131819 -0.263776
v 0.181703 0.157496 0.258650
v -0.260641 -0.126303 0.263236
v 0.181703 0.157496 -0.258650
v -0.260641 -0.126303 -0.263236
v 0.194897 0.131058 0.263236
v -0.245620 -0.147831 0.255863
v 0.194897 0.131058 -0.263236
v -0.245620 -0.147831 -0.255863
vn -0.0000 -0.0000 1.0000
vn -1.0000 -0.0000 -0.0000
vn -0.0000 -0.0000 -1.0000
vn 1.0000 -0.0000 -0.0000
vn -0.0000 -1.0000 -0.0000
vn -0.5428 0.8399 -0.0000
vn -0.0000 1.0000 -0.0000
vn 0.8256 0.5643 -0.0000
vn -0.0000 -0.0407 -0.9992
vn 0.9992 -0.0407 -0.0000
vn -0.0000 -0.0407 0.9992
vn -0.9992 -0.0407 -0.0000
vn 0.5450 -0.8384 -0.0000
vn 0.9148 -0.4039 -0.0000
vn -0.4318 0.6735 -0.6000
vn -0.4318 0.6735 0.6000
vn -0.8948 -0.4465 -0.0000
vn -0.0246 0.0436 0.9987
vn -0.0246 0.0436 -0.9987
vn -0.9296 0.3687 -0.0000
vn 0.7515 -0.2377 0.6154
vn 0.7515 -0.2377 -0.6154
vn 0.4756 -0.7495 0.4605
vn 0.4756 -0.7495 -0.4605
vn 0.9461 -0.3239 -0.0000
vn -0.8204 -0.5712 -0.0263
vn -0.8204 -0.5712 0.0263
vt 0.745437 0.657758
vt 0.728880 0.657755
vt 0.728880 0.347707
vt 0.745437 0.347709
vt 0.789135 0.657766
vt 0.775887 0.657766
vt 0.775887 0.347707
vt 0.789135 0.347707
vt 0.922581 0.347541
vt 0.939138 0.347539
vt 0.939138 0.657587
vt 0.922581 0.657590
vt 0.982018 0.657598
vt 0.969173 0.657598
vt 0.969173 0.347539
vt 0.982018 0.347539
vt 0.347694 0.993763
vt 0.347694 0.675102
vt 0.661570 0.675102
vt 0.661570 0.993763
vt 0.334170 0.334171
vt 0.000000 0.334171
vt 0.000000 0.000000
vt 0.334170 0.000000
vt 0.280698 0.337156
vt 0.775886 0.347707
vt 0.775886 0.657766
vt 0.760657 0.657766
vt 0.760657 0.347707
vt 0.745437 0.658152
vt 0.745437 0.348098
vt 0.760657 0.347707
vt 0.760657 0.657761
vt 0.954359 0.347930
vt 0.954359 0.657984
vt 0.939138 0.657593
vt 0.939138 0.347539
vt 0.866087 0.653553
vt 0.866087 0.348875
vt 0.880901 0.349481
vt 0.880901 0.652952
vt 0.967662 0.340096
vt 0.967662 0.644785
vt 0.955797 0.644181
vt 0.955797 0.340699
vt 0.969173 0.347539
vt 0.969173 0.652217
vt 0.954359 0.651616
vt 0.954359 0.348145
vt 0.038726 0.665527
vt 0.038726 0.993909
vt 0.026351 0.993259
vt 0.026351 0.666177
vt 0.008728 0.671235
vt 0.343656 0.671235
vt 0.343656 0.999617
vt 0.008728 0.999617
vt 0.339596 0.326292
vt 0.339596 0.000641
vt 0.673767 0.000641
vt 0.673767 0.326292
vt 0.334171 0.000518
vt 0.337418 0.000000
vt 0.665094 0.000000
vt 0.668341 0.000518
vt 0.982312 0.659054
vt 0.982018 0.656436
vt 0.982018 0.347539
vt 0.985026 0.348047
vt 0.985026 0.348047
vt 0.988035 0.347539
vt 0.988035 0.656435
vt 0.987740 0.659054
vt 0.831673 0.655604
vt 0.814389 0.658299
vt 0.814389 0.348875
vt 0.831673 0.351570
vt 0.848880 0.657772
vt 0.833378 0.657148
vt 0.831673 0.350753
vt 0.848880 0.348875
vt 0.848880 0.348875
vt 0.866087 0.350753
vt 0.864382 0.657148
vt 0.848880 0.657772
vt 0.680303 0.347539
vt 0.922581 0.347539
vt 0.920011 0.350827
vt 0.682873 0.350827
vt 0.680303 0.657598
vt 0.682873 0.654309
vt 0.922581 0.657598
vt 0.920011 0.654309
vt 0.334170 0.337156
vt 0.000000 0.337156
vt 0.333754 0.337156
vt 0.334096 0.337322
vt 0.333754 0.340131
vt 0.334096 0.340131
vt 0.334096 0.343107
vt 0.333754 0.340298
vt 0.960033 0.416441
vt 0.747083 0.404618
vt 0.747083 0.409630
vt 0.963662 0.416758
vt 0.700892 0.633457
vt 0.913842 0.621168
vt 0.917471 0.620851
vt 0.700892 0.628444
vt 0.881288 0.657598
vt 0.881288 0.347539
vt 0.884917 0.347856
vt 0.884917 0.657280
vt 0.251412 0.687613
vt 0.246972 0.671825
vt 0.251797 0.670468
vt 0.251797 0.687719
vt 0.256623 0.671825
vt 0.252183 0.687613
vt 0.251797 0.687719
vt 0.251797 0.670468
s 0
usemtl pizza_box
f 1/1/1 2/2/1 4/3/1 3/4/1
f 3/5/2 4/6/2 8/7/2 7/8/2
f 7/9/3 8/10/3 6/11/3 5/12/3
f 5/13/4 6/14/4 2/15/4 1/16/4
f 3/17/5 7/18/5 5/19/5 1/20/5
f 12/21/6 10/22/6 9/23/6 11/24/6
f 11/25/7 9/25/7 13/25/7 15/25/7
f 12/25/6 11/25/6 15/25/6 16/25/6
f 9/25/6 10/25/6 14/25/6 13/25/6
f 15/26/8 13/27/8 17/28/8 19/29/8
f 16/30/3 15/31/3 19/32/3 20/33/3
f 13/34/1 14/35/1 18/36/1 17/37/1
f 21/38/9 23/39/9 24/40/9 22/41/9
f 23/42/10 27/43/10 28/44/10 24/45/10
f 27/46/11 25/47/11 26/48/11 28/49/11
f 25/50/12 21/51/12 22/52/12 26/53/12
f 23/54/7 21/55/7 25/56/7 27/57/7
f 32/58/13 31/59/13 29/60/13 30/61/13
f 31/62/14 35/63/14 33/64/14 29/65/14
f 32/66/15 36/67/15 35/68/15 31/69/15
f 29/70/16 33/71/16 34/72/16 30/73/16
f 35/74/17 39/75/17 37/76/17 33/77/17
f 36/78/18 40/79/18 39/80/18 35/81/18
f 33/82/19 37/83/19 38/84/19 34/85/19
f 4/86/7 2/87/7 22/88/7 24/89/7
f 8/90/7 4/86/7 24/89/7 28/91/7
f 6/92/7 8/90/7 28/91/7 26/93/7
f 2/87/7 6/92/7 26/93/7 22/88/7
f 10/22/20 12/21/20 32/94/20 30/95/20
f 12/96/21 16/96/21 36/97/21 32/98/21
f 14/99/22 10/99/22 30/100/22 34/101/22
f 17/102/23 18/103/23 38/104/23 37/105/23
f 20/106/24 19/107/24 39/108/24 40/109/24
f 19/110/25 17/111/25 37/112/25 39/113/25
f 16/114/26 20/115/26 40/116/26 36/117/26
f 18/118/27 14/119/27 34/120/27 38/121/27
