# Blender 4.3.2
# www.blender.org
mtllib table_01.mtl
o table.01
v -0.624540 0.345919 0.624540
v -0.624540 0.438866 0.624540
v -0.624540 0.345919 -0.624540
v -0.624540 0.438866 -0.624540
v 0.624540 0.345919 0.624540
v 0.624540 0.438866 0.624540
v 0.624540 0.345919 -0.624540
v 0.624540 0.438866 -0.624540
v -0.582943 0.345919 -0.582943
v 0.582943 0.345919 -0.582943
v 0.582943 0.345919 0.582943
v -0.582943 0.345919 0.582943
v 0.569088 0.366524 -0.570449
v -0.569088 0.366524 -0.570449
v -0.569088 0.366524 0.570449
v 0.569088 0.366524 0.570449
v 0.521073 0.345919 -0.624540
v -0.521073 0.345919 -0.624540
v -0.521073 0.438866 -0.624540
v 0.521073 0.438866 -0.624540
v -0.521073 0.345919 0.624540
v 0.521073 0.345919 0.624540
v 0.521073 0.438866 0.624540
v -0.521073 0.438866 0.624540
v 0.486367 0.345919 -0.582943
v -0.486367 0.345919 -0.582943
v -0.486367 0.345919 0.582943
v 0.486367 0.345919 0.582943
v 0.500222 0.366524 -0.570449
v -0.500222 0.366524 -0.570449
v -0.500222 0.366524 0.570449
v 0.500222 0.366524 0.570449
v -0.624540 0.345919 -0.531235
v -0.624540 0.345919 0.531235
v -0.624540 0.438866 0.531235
v -0.624540 0.438866 -0.531235
v 0.624540 0.345919 0.531235
v 0.624540 0.345919 -0.531235
v 0.624540 0.438866 -0.531235
v 0.624540 0.438866 0.531235
v -0.582943 0.345919 -0.495852
v -0.582943 0.345919 0.495852
v 0.582943 0.345919 0.495852
v 0.582943 0.345919 -0.495852
v -0.569088 0.366524 -0.508346
v -0.569088 0.366524 0.508346
v 0.569088 0.366524 0.508346
v 0.569088 0.366524 -0.508346
v -0.500222 0.366524 -0.508346
v -0.500222 0.366524 0.508346
v 0.500222 0.366524 -0.508346
v 0.500222 0.366524 0.508346
v 0.521073 0.438866 -0.531235
v 0.521073 0.438866 0.531235
v -0.521073 0.438866 -0.531235
v -0.521073 0.438866 0.531235
v -0.500222 -0.427232 -0.570449
v -0.506352 -0.438866 -0.564319
v -0.562958 -0.438866 -0.564319
v -0.569088 -0.427232 -0.570449
v -0.569088 -0.427232 0.508346
v -0.562958 -0.438866 0.514476
v -0.562958 -0.438866 0.564319
v -0.569088 -0.427232 0.570449
v 0.569088 -0.427232 -0.508346
v 0.562958 -0.438866 -0.514476
v 0.562958 -0.438866 -0.564319
v 0.569088 -0.427232 -0.570449
v 0.500222 -0.427232 0.570449
v 0.506352 -0.438866 0.564319
v 0.562958 -0.438866 0.564319
v 0.569088 -0.427232 0.570449
v 0.506352 -0.438866 -0.564319
v 0.500222 -0.427232 -0.570449
v -0.506352 -0.438866 0.564319
v -0.500222 -0.427232 0.570449
v -0.506352 -0.438866 0.514476
v -0.500222 -0.427232 0.508346
v 0.500222 -0.427232 0.508346
v 0.506352 -0.438866 0.514476
v -0.562958 -0.438866 -0.514476
v -0.569088 -0.427232 -0.508346
v 0.562958 -0.438866 0.514476
v 0.569088 -0.427232 0.508346
v -0.500222 -0.427232 -0.508346
v -0.506352 -0.438866 -0.514476
v 0.506352 -0.438866 -0.514476
v 0.500222 -0.427232 -0.508346
vn -1.0000 -0.0000 -0.0000
vn -0.0000 -0.0000 -1.0000
vn 1.0000 -0.0000 -0.0000
vn -0.0000 -0.0000 1.0000
vn -0.0000 -0.5185 -0.8551
vn -0.0000 1.0000 -0.0000
vn -0.0000 -1.0000 -0.0000
vn 0.8298 -0.5580 -0.0000
vn -0.8298 -0.5580 -0.0000
vn -0.0000 -0.5185 0.8551
vn -0.0000 -0.4661 -0.8847
vn -0.8847 -0.4661 -0.0000
vn 0.8847 -0.4661 -0.0000
vn -0.0000 -0.4661 0.8847
vt 0.527490 0.494044
vt 0.500000 0.494044
vt 0.500000 0.456695
vt 0.527490 0.456695
vt 0.554979 0.498112
vt 0.527490 0.498112
vt 0.527490 0.456695
vt 0.554979 0.456695
vt 0.582469 0.494044
vt 0.554979 0.494044
vt 0.582469 0.456695
vt 0.609959 0.498112
vt 0.582469 0.498112
vt 0.582469 0.456695
vt 0.609959 0.456695
vt 0.936023 0.884734
vt 0.936023 0.923392
vt 0.929929 0.917846
vt 0.929929 0.890280
vt 0.035578 0.460321
vt 0.035578 0.502083
vt -0.002084 0.502083
vt -0.002084 0.460321
vt 0.500000 0.958583
vt 0.500000 1.000000
vt 0.483349 0.983349
vt 0.483349 0.944690
vt 0.037350 1.000000
vt 0.000000 1.000000
vt 0.016651 0.983349
vt 0.051513 0.983349
vt 0.000000 0.541417
vt 0.000000 0.500000
vt 0.016651 0.516651
vt 0.016651 0.555310
vt 0.462650 0.500000
vt 0.500000 0.500000
vt 0.483349 0.516651
vt 0.448487 0.516651
vt 0.637525 0.456695
vt 0.665092 0.456695
vt 0.665092 0.691453
vt 0.637525 0.691453
vt 0.954305 0.888530
vt 0.954305 0.923392
vt 0.948211 0.918391
vt 0.948211 0.893532
vt 0.942117 0.888530
vt 0.942117 0.923392
vt 0.936023 0.918391
vt 0.936023 0.893532
vt 0.948211 0.884734
vt 0.948211 0.923392
vt 0.942117 0.917846
vt 0.942117 0.890280
vt 0.948211 0.456695
vt 0.948211 0.495353
vt 0.942117 0.489807
vt 0.942117 0.462241
vt 0.634818 0.694893
vt 0.659677 0.694893
vt 0.659677 0.929651
vt 0.634818 0.929651
vt 0.928039 0.024859
vt 0.527567 0.024859
vt 0.527567 0.000000
vt 0.928039 0.000000
vt 0.000000 0.958583
vt 0.016651 0.944690
vt 0.500000 0.541417
vt 0.483349 0.555310
vt 0.035578 -0.002084
vt 0.035578 0.039679
vt -0.002083 0.039679
vt -0.002083 -0.002084
vt 0.936023 0.456695
vt 0.936023 0.495353
vt 0.929929 0.489807
vt 0.929929 0.462241
vt 0.609959 0.956695
vt 0.582469 0.956695
vt 0.582469 0.915277
vt 0.609959 0.915277
vt 0.554979 0.956695
vt 0.527490 0.956695
vt 0.527490 0.915277
vt 0.554979 0.915277
vt 0.502084 0.039679
vt 0.502084 0.460321
vt 0.464422 0.460321
vt 0.464423 0.039679
vt 0.502084 -0.002084
vt 0.464423 -0.002084
vt 0.928039 0.456695
vt 0.527567 0.456695
vt 0.527567 0.431835
vt 0.928039 0.431835
vt 0.692659 0.456695
vt 0.692659 0.691453
vt 0.955605 0.431835
vt 0.955605 0.024859
vt 0.942117 0.456695
vt 0.942117 0.491557
vt 0.936023 0.486555
vt 0.936023 0.461696
vt 0.954305 0.456695
vt 0.954305 0.491557
vt 0.948211 0.486555
vt 0.948211 0.461696
vt 0.500000 0.431836
vt 0.500000 0.024859
vt 0.037350 0.500000
vt 0.051513 0.516651
vt 0.462650 1.000000
vt 0.448487 0.983349
vt 0.502083 0.502084
vt 0.464422 0.502084
vt 0.582469 0.956695
vt 0.554979 0.956695
vt 0.554979 0.919345
vt 0.582469 0.919345
vt 0.527490 0.956695
vt 0.500000 0.956695
vt 0.500000 0.919345
vt 0.527490 0.919345
vt 0.855351 0.456695
vt 0.880210 0.456695
vt 0.880210 0.691453
vt 0.855351 0.691453
vt 0.720225 0.456695
vt 0.720225 0.691453
vt 0.684537 0.694893
vt 0.684537 0.929651
vt 0.747792 0.456695
vt 0.747792 0.691453
vt 0.830491 0.456695
vt 0.830491 0.691453
vt 0.775358 0.456695
vt 0.775358 0.691453
vt 0.880210 0.456695
vt 0.905069 0.456695
vt 0.905069 0.691453
vt 0.880210 0.691453
vt 0.709396 0.694893
vt 0.709396 0.929651
vt 0.749300 0.717553
vt 0.749300 0.740212
vt 0.729348 0.740212
vt 0.729348 0.717553
vt 0.905069 0.456695
vt 0.929929 0.456695
vt 0.929929 0.691453
vt 0.905069 0.691453
vt 0.749300 0.694893
vt 0.729348 0.717553
vt 0.729348 0.694893
vt 0.609959 0.456695
vt 0.637525 0.456695
vt 0.637525 0.691453
vt 0.609959 0.691453
vt 0.729348 0.694893
vt 0.729348 0.717553
vt 0.709396 0.717553
vt 0.709396 0.694893
vt 0.609959 0.694893
vt 0.609959 0.929651
vt 0.775358 0.456695
vt 0.802925 0.456695
vt 0.802925 0.691452
vt 0.775358 0.691452
vt 0.709396 0.740212
vt 0.709396 0.717553
vt 0.828038 0.694893
vt 0.805379 0.694893
vt 0.802925 0.691452
vt 0.830491 0.691452
vt 0.927475 0.694893
vt 0.907523 0.694893
vt 0.706942 0.933092
vt 0.686990 0.933092
vt 0.772905 0.694893
vt 0.750245 0.694893
vt 0.635072 0.694893
vt 0.612412 0.694893
vt 0.662638 0.694893
vt 0.639979 0.694893
vt 0.902616 0.694893
vt 0.882664 0.694893
vt 0.877756 0.694893
vt 0.857804 0.694893
vt 0.657224 0.933092
vt 0.637272 0.933092
vt 0.852897 0.694893
vt 0.832945 0.694893
vt 0.682083 0.933092
vt 0.662131 0.933092
vt 0.632364 0.933092
vt 0.612412 0.933092
vt 0.800471 0.694893
vt 0.777812 0.694893
vt 0.717772 0.694893
vt 0.695112 0.694893
vt 0.745338 0.694893
vt 0.722679 0.694893
vt 0.690205 0.694893
vt 0.667546 0.694893
vt 0.802925 0.456695
vt 0.830491 0.456695
s 0
usemtl table.001
f 33/1/1 36/2/1 4/3/1 3/4/1
f 17/5/2 20/6/2 8/7/2 7/8/2
f 37/9/3 40/10/3 6/8/3 5/11/3
f 21/12/4 24/13/4 2/14/4 1/15/4
f 27/16/5 12/17/5 15/18/5 31/19/5
f 56/20/6 35/21/6 2/22/6 24/23/6
f 17/24/7 7/25/7 10/26/7 25/27/7
f 37/28/7 5/29/7 11/30/7 43/31/7
f 21/32/7 1/33/7 12/34/7 27/35/7
f 33/36/7 3/37/7 9/38/7 41/39/7
f 31/40/4 15/41/4 64/42/4 76/43/4
f 41/44/8 9/45/8 14/46/8 45/47/8
f 43/48/9 11/49/9 16/50/9 47/51/9
f 25/52/10 10/53/10 13/54/10 29/55/10
f 9/56/10 26/57/10 30/58/10 14/59/10
f 26/57/10 25/52/10 29/55/10 30/58/10
f 45/60/1 14/61/1 60/62/1 82/63/1
f 50/64/7 52/65/7 32/66/7 31/67/7
f 5/29/7 22/68/7 28/69/7 11/30/7
f 22/68/7 21/32/7 27/35/7 28/69/7
f 3/37/7 18/70/7 26/71/7 9/38/7
f 18/70/7 17/24/7 25/27/7 26/71/7
f 40/72/6 54/73/6 23/74/6 6/75/6
f 54/73/6 56/20/6 24/23/6 23/74/6
f 11/76/5 28/77/5 32/78/5 16/79/5
f 28/77/5 27/16/5 31/19/5 32/78/5
f 5/80/4 6/81/4 23/82/4 22/83/4
f 22/83/4 23/82/4 24/13/4 21/12/4
f 3/84/2 4/85/2 19/86/2 18/87/2
f 18/87/2 19/86/2 20/6/2 17/5/2
f 20/88/6 19/89/6 55/90/6 53/91/6
f 53/91/6 55/90/6 56/20/6 54/73/6
f 8/92/6 20/88/6 53/91/6 39/93/6
f 39/93/6 53/91/6 54/73/6 40/72/6
f 30/94/7 29/95/7 51/96/7 49/97/7
f 49/97/7 51/96/7 52/65/7 50/64/7
f 52/41/2 47/98/2 84/99/2 79/42/2
f 45/100/7 49/97/7 50/64/7 46/101/7
f 10/102/9 44/103/9 48/104/9 13/105/9
f 44/103/9 43/48/9 47/51/9 48/104/9
f 12/106/8 42/107/8 46/108/8 15/109/8
f 42/107/8 41/44/8 45/47/8 46/108/8
f 51/96/7 48/110/7 47/111/7 52/65/7
f 1/33/7 34/112/7 42/113/7 12/34/7
f 34/112/7 33/36/7 41/39/7 42/113/7
f 7/25/7 38/114/7 44/115/7 10/26/7
f 38/114/7 37/28/7 43/31/7 44/115/7
f 19/89/6 4/116/6 36/117/6 55/90/6
f 55/90/6 36/117/6 35/21/6 56/20/6
f 7/118/3 8/119/3 39/120/3 38/121/3
f 38/121/3 39/120/3 40/10/3 37/9/3
f 1/122/1 2/123/1 35/124/1 34/125/1
f 34/125/1 35/124/1 36/2/1 33/1/1
f 32/126/1 52/127/1 79/128/1 69/129/1
f 46/98/2 50/130/2 78/131/2 61/99/2
f 30/61/3 49/132/3 85/133/3 57/62/3
f 48/130/4 51/134/4 88/135/4 65/131/4
f 47/136/3 16/126/3 72/129/3 84/137/3
f 16/134/4 32/138/4 69/139/4 72/135/4
f 50/140/3 31/141/3 76/142/3 78/143/3
f 13/132/3 48/144/3 65/145/3 68/133/3
f 59/146/7 58/147/7 86/148/7 81/149/7
f 15/150/1 46/151/1 61/152/1 64/153/1
f 62/154/7 77/146/7 75/155/7 63/156/7
f 29/157/2 13/158/2 68/159/2 74/160/2
f 73/161/7 67/162/7 66/163/7 87/164/7
f 51/165/1 29/60/1 74/63/1 88/166/1
f 49/167/4 45/168/4 82/169/4 85/170/4
f 80/162/7 83/148/7 71/171/7 70/172/7
f 58/173/11 59/174/11 60/175/11 57/176/11
f 62/177/12 63/178/12 64/153/12 61/152/12
f 66/179/13 67/180/13 68/133/13 65/145/13
f 70/181/14 71/182/14 72/135/14 69/139/14
f 67/183/11 73/184/11 74/160/11 68/159/11
f 63/185/14 75/186/14 76/43/14 64/42/14
f 78/143/13 76/142/13 75/187/13 77/188/13
f 80/189/12 70/190/12 69/129/12 79/128/12
f 59/191/12 81/192/12 82/63/12 60/62/12
f 71/193/13 83/194/13 84/137/13 72/129/13
f 57/62/13 85/133/13 86/195/13 58/196/13
f 73/197/12 87/198/12 88/166/12 74/63/12
f 85/170/14 82/169/14 81/199/14 86/200/14
f 77/201/11 62/202/11 61/99/11 78/131/11
f 65/131/14 88/135/14 87/203/14 66/204/14
f 83/205/11 80/206/11 79/42/11 84/99/11
f 14/207/2 30/208/2 57/176/2 60/175/2
